G04 Layer: TopPasteMaskLayer*
G04 EasyEDA v6.5.34, 2023-10-15 23:32:28*
G04 71d41e4822c04cdf8dbe640198561a58,c7e5a72684d24d89a273277b68740de8,10*
G04 Gerber Generator version 0.2*
G04 Scale: 100 percent, Rotated: No, Reflected: No *
G04 Dimensions in millimeters *
G04 leading zeros omitted , absolute positions ,4 integer and 5 decimal *
%FSLAX45Y45*%
%MOMM*%

%AMMACRO1*21,1,$1,$2,0,0,$3*%
%ADD10C,1.5240*%
%ADD11R,1.5240X3.0000*%
%ADD12R,1.5000X1.0000*%
%ADD13R,0.9800X2.4700*%
%ADD14MACRO1,3.6X2.47X0.0000*%
%ADD15R,0.9500X2.1000*%
%ADD16R,2.1000X0.9500*%
%ADD17R,0.9000X0.9000*%

%LPD*%
G36*
X1764792Y-2319223D02*
G01*
X1759813Y-2324201D01*
X1759813Y-2439212D01*
X1764792Y-2444191D01*
X1806803Y-2443683D01*
X1806803Y-2399690D01*
X1851812Y-2399690D01*
X1851812Y-2444699D01*
X1892807Y-2444191D01*
X1897786Y-2439212D01*
X1897786Y-2324201D01*
X1892807Y-2319223D01*
G37*
G36*
X1764792Y-2534208D02*
G01*
X1759813Y-2539187D01*
X1759813Y-2654198D01*
X1764792Y-2659176D01*
X1892807Y-2659176D01*
X1897786Y-2654198D01*
X1897786Y-2539187D01*
X1892807Y-2534208D01*
X1851812Y-2534716D01*
X1851812Y-2578709D01*
X1806803Y-2578709D01*
X1806803Y-2534208D01*
G37*
G36*
X1284224Y-2321712D02*
G01*
X1279194Y-2326690D01*
X1279194Y-2441702D01*
X1284224Y-2446680D01*
X1326184Y-2446223D01*
X1326184Y-2402179D01*
X1371193Y-2402179D01*
X1371193Y-2447188D01*
X1412189Y-2446680D01*
X1417218Y-2441702D01*
X1417218Y-2326690D01*
X1412189Y-2321712D01*
G37*
G36*
X1284224Y-2536698D02*
G01*
X1279194Y-2541676D01*
X1279194Y-2656687D01*
X1284224Y-2661716D01*
X1412189Y-2661716D01*
X1417218Y-2656687D01*
X1417218Y-2541676D01*
X1412189Y-2536698D01*
X1371193Y-2537206D01*
X1371193Y-2581198D01*
X1326184Y-2581198D01*
X1326184Y-2536698D01*
G37*
G36*
X1564487Y-2533700D02*
G01*
X1523492Y-2534208D01*
X1518513Y-2539187D01*
X1518513Y-2654198D01*
X1523492Y-2659227D01*
X1651507Y-2659227D01*
X1656486Y-2654198D01*
X1656486Y-2539187D01*
X1651507Y-2534208D01*
X1609496Y-2534716D01*
X1609496Y-2578709D01*
X1564487Y-2578709D01*
G37*
G36*
X1523492Y-2319223D02*
G01*
X1518513Y-2324201D01*
X1518513Y-2439212D01*
X1523492Y-2444191D01*
X1564487Y-2443683D01*
X1564487Y-2399690D01*
X1609496Y-2399690D01*
X1609496Y-2444191D01*
X1651507Y-2444191D01*
X1656486Y-2439212D01*
X1656486Y-2324201D01*
X1651507Y-2319223D01*
G37*
D10*
G01*
X814247Y-2111400D03*
G01*
X814247Y-1911400D03*
G01*
X814247Y-1711401D03*
G01*
X814247Y-1511401D03*
G01*
X814247Y-1311402D03*
G01*
X814247Y-1111402D03*
G01*
X814247Y-911402D03*
G01*
X814247Y-708202D03*
G01*
X3252647Y-2997200D03*
G01*
X3455847Y-2997200D03*
D11*
G01*
X1447800Y-3086100D03*
G01*
X1676400Y-3086100D03*
D10*
G01*
X3049447Y-2997200D03*
G01*
X1524000Y-1511300D03*
G01*
X1524000Y-1714500D03*
G01*
X1524000Y-1917700D03*
G01*
X1524000Y-2120900D03*
D12*
G01*
X2030704Y-2997200D03*
G01*
X2820695Y-2997200D03*
D13*
G01*
X633602Y-2963189D03*
G01*
X863600Y-2963189D03*
G01*
X1093596Y-2963189D03*
D14*
G01*
X863599Y-2396200D03*
D15*
G01*
X3835400Y-649401D03*
G01*
X3708400Y-649401D03*
G01*
X3581400Y-649401D03*
G01*
X3454400Y-649401D03*
G01*
X3327400Y-649401D03*
G01*
X3200400Y-649401D03*
G01*
X3073400Y-649401D03*
G01*
X2946400Y-649401D03*
G01*
X2819400Y-649401D03*
G01*
X2692400Y-649401D03*
G01*
X2565400Y-649401D03*
G01*
X2438400Y-649401D03*
G01*
X2311400Y-649401D03*
G01*
X2184400Y-649401D03*
D16*
G01*
X2034895Y-977925D03*
G01*
X2034895Y-1104925D03*
G01*
X2034895Y-1231925D03*
G01*
X2034895Y-1358925D03*
G01*
X2034895Y-1485925D03*
G01*
X2034895Y-1612925D03*
G01*
X2034895Y-1739925D03*
G01*
X2034895Y-1866925D03*
G01*
X2034895Y-1993925D03*
G01*
X2034895Y-2120925D03*
D15*
G01*
X2184400Y-2449398D03*
G01*
X2311400Y-2449398D03*
G01*
X2438400Y-2449398D03*
G01*
X2565400Y-2449398D03*
G01*
X2692400Y-2449398D03*
G01*
X2819400Y-2449398D03*
G01*
X2946400Y-2449398D03*
G01*
X3073400Y-2449398D03*
G01*
X3200400Y-2449398D03*
G01*
X3327400Y-2449398D03*
G01*
X3454400Y-2449398D03*
G01*
X3581400Y-2449398D03*
G01*
X3708400Y-2449398D03*
G01*
X3835400Y-2449398D03*
D17*
G01*
X3067304Y-1399387D03*
G01*
X3067304Y-1259408D03*
G01*
X3067304Y-1539392D03*
G01*
X3207308Y-1539392D03*
G01*
X3207308Y-1399413D03*
G01*
X3207308Y-1259408D03*
G01*
X2927299Y-1259408D03*
G01*
X2927299Y-1399413D03*
G01*
X2927299Y-1539392D03*
M02*
