G04 Layer: TopSilkscreenLayer*
G04 EasyEDA v6.5.34, 2023-10-15 23:32:28*
G04 71d41e4822c04cdf8dbe640198561a58,c7e5a72684d24d89a273277b68740de8,10*
G04 Gerber Generator version 0.2*
G04 Scale: 100 percent, Rotated: No, Reflected: No *
G04 Dimensions in millimeters *
G04 leading zeros omitted , absolute positions ,4 integer and 5 decimal *
%FSLAX45Y45*%
%MOMM*%

%ADD10C,0.1524*%
%ADD11C,0.2540*%

%LPD*%
D10*
X977071Y-656386D02*
G01*
X1034221Y-656386D01*
X1002979Y-698042D01*
X1018727Y-698042D01*
X1028887Y-703122D01*
X1034221Y-708202D01*
X1039301Y-723950D01*
X1039301Y-734364D01*
X1034221Y-749858D01*
X1023807Y-760272D01*
X1008313Y-765352D01*
X992565Y-765352D01*
X977071Y-760272D01*
X971737Y-755192D01*
X966657Y-744778D01*
X1073591Y-656386D02*
G01*
X1115247Y-765352D01*
X1156903Y-656386D02*
G01*
X1115247Y-765352D01*
X1044635Y-882446D02*
G01*
X1039301Y-872032D01*
X1028887Y-861618D01*
X1018727Y-856284D01*
X997899Y-856284D01*
X987485Y-861618D01*
X977071Y-872032D01*
X971737Y-882446D01*
X966657Y-897940D01*
X966657Y-923848D01*
X971737Y-939596D01*
X977071Y-949756D01*
X987485Y-960170D01*
X997899Y-965504D01*
X1018727Y-965504D01*
X1028887Y-960170D01*
X1039301Y-949756D01*
X1044635Y-939596D01*
X1044635Y-923848D01*
X1018727Y-923848D02*
G01*
X1044635Y-923848D01*
X966657Y-1056436D02*
G01*
X966657Y-1165402D01*
X966657Y-1056436D02*
G01*
X1002979Y-1056436D01*
X1018727Y-1061516D01*
X1028887Y-1071930D01*
X1034221Y-1082344D01*
X1039301Y-1097838D01*
X1039301Y-1124000D01*
X1034221Y-1139494D01*
X1028887Y-1149908D01*
X1018727Y-1160322D01*
X1002979Y-1165402D01*
X966657Y-1165402D01*
X1073591Y-1056436D02*
G01*
X1073591Y-1165402D01*
X1107881Y-1056436D02*
G01*
X1107881Y-1165402D01*
X1107881Y-1056436D02*
G01*
X1180779Y-1165402D01*
X1180779Y-1056436D02*
G01*
X1180779Y-1165402D01*
X1044635Y-1282242D02*
G01*
X1039301Y-1271828D01*
X1028887Y-1261668D01*
X1018727Y-1256334D01*
X997899Y-1256334D01*
X987485Y-1261668D01*
X977071Y-1271828D01*
X971737Y-1282242D01*
X966657Y-1297990D01*
X966657Y-1323898D01*
X971737Y-1339392D01*
X977071Y-1349806D01*
X987485Y-1360220D01*
X997899Y-1365554D01*
X1018727Y-1365554D01*
X1028887Y-1360220D01*
X1039301Y-1349806D01*
X1044635Y-1339392D01*
X1078925Y-1256334D02*
G01*
X1078925Y-1365554D01*
X1078925Y-1365554D02*
G01*
X1141155Y-1365554D01*
X1175445Y-1256334D02*
G01*
X1175445Y-1365554D01*
X1248343Y-1256334D02*
G01*
X1175445Y-1328978D01*
X1201607Y-1303070D02*
G01*
X1248343Y-1365554D01*
X1044635Y-1482394D02*
G01*
X1039301Y-1471980D01*
X1028887Y-1461566D01*
X1018727Y-1456486D01*
X997899Y-1456486D01*
X987485Y-1461566D01*
X977071Y-1471980D01*
X971737Y-1482394D01*
X966657Y-1497888D01*
X966657Y-1523796D01*
X971737Y-1539544D01*
X977071Y-1549958D01*
X987485Y-1560372D01*
X997899Y-1565452D01*
X1018727Y-1565452D01*
X1028887Y-1560372D01*
X1039301Y-1549958D01*
X1044635Y-1539544D01*
X1151569Y-1471980D02*
G01*
X1141155Y-1461566D01*
X1125661Y-1456486D01*
X1104833Y-1456486D01*
X1089339Y-1461566D01*
X1078925Y-1471980D01*
X1078925Y-1482394D01*
X1084005Y-1492808D01*
X1089339Y-1497888D01*
X1099753Y-1503222D01*
X1130741Y-1513636D01*
X1141155Y-1518716D01*
X1146489Y-1523796D01*
X1151569Y-1534210D01*
X1151569Y-1549958D01*
X1141155Y-1560372D01*
X1125661Y-1565452D01*
X1104833Y-1565452D01*
X1089339Y-1560372D01*
X1078925Y-1549958D01*
X966657Y-1656384D02*
G01*
X966657Y-1765350D01*
X966657Y-1656384D02*
G01*
X1002979Y-1656384D01*
X1018727Y-1661464D01*
X1028887Y-1671878D01*
X1034221Y-1682292D01*
X1039301Y-1698040D01*
X1039301Y-1723948D01*
X1034221Y-1739442D01*
X1028887Y-1749856D01*
X1018727Y-1760270D01*
X1002979Y-1765350D01*
X966657Y-1765350D01*
X1151569Y-1682292D02*
G01*
X1146489Y-1671878D01*
X1136075Y-1661464D01*
X1125661Y-1656384D01*
X1104833Y-1656384D01*
X1094419Y-1661464D01*
X1084005Y-1671878D01*
X1078925Y-1682292D01*
X1073591Y-1698040D01*
X1073591Y-1723948D01*
X1078925Y-1739442D01*
X1084005Y-1749856D01*
X1094419Y-1760270D01*
X1104833Y-1765350D01*
X1125661Y-1765350D01*
X1136075Y-1760270D01*
X1146489Y-1749856D01*
X1151569Y-1739442D01*
X966657Y-1856282D02*
G01*
X966657Y-1965502D01*
X966657Y-1856282D02*
G01*
X1013393Y-1856282D01*
X1028887Y-1861616D01*
X1034221Y-1866696D01*
X1039301Y-1877110D01*
X1039301Y-1887524D01*
X1034221Y-1897938D01*
X1028887Y-1903018D01*
X1013393Y-1908352D01*
X966657Y-1908352D01*
X1002979Y-1908352D02*
G01*
X1039301Y-1965502D01*
X1146489Y-1872030D02*
G01*
X1136075Y-1861616D01*
X1120327Y-1856282D01*
X1099753Y-1856282D01*
X1084005Y-1861616D01*
X1073591Y-1872030D01*
X1073591Y-1882444D01*
X1078925Y-1892604D01*
X1084005Y-1897938D01*
X1094419Y-1903018D01*
X1125661Y-1913432D01*
X1136075Y-1918766D01*
X1141155Y-1923846D01*
X1146489Y-1934260D01*
X1146489Y-1949754D01*
X1136075Y-1960168D01*
X1120327Y-1965502D01*
X1099753Y-1965502D01*
X1084005Y-1960168D01*
X1073591Y-1949754D01*
X1217101Y-1856282D02*
G01*
X1217101Y-1965502D01*
X1180779Y-1856282D02*
G01*
X1253423Y-1856282D01*
X966657Y-2056434D02*
G01*
X966657Y-2165400D01*
X966657Y-2056434D02*
G01*
X1013393Y-2056434D01*
X1028887Y-2061514D01*
X1034221Y-2066848D01*
X1039301Y-2077262D01*
X1039301Y-2087422D01*
X1034221Y-2097836D01*
X1028887Y-2103170D01*
X1013393Y-2108250D01*
X966657Y-2108250D02*
G01*
X1013393Y-2108250D01*
X1028887Y-2113584D01*
X1034221Y-2118664D01*
X1039301Y-2129078D01*
X1039301Y-2144572D01*
X1034221Y-2154986D01*
X1028887Y-2160320D01*
X1013393Y-2165400D01*
X966657Y-2165400D01*
X1073591Y-2056434D02*
G01*
X1073591Y-2134412D01*
X1078925Y-2149906D01*
X1089339Y-2160320D01*
X1104833Y-2165400D01*
X1115247Y-2165400D01*
X1130741Y-2160320D01*
X1141155Y-2149906D01*
X1146489Y-2134412D01*
X1146489Y-2056434D01*
X1253423Y-2071928D02*
G01*
X1243009Y-2061514D01*
X1227515Y-2056434D01*
X1206687Y-2056434D01*
X1191193Y-2061514D01*
X1180779Y-2071928D01*
X1180779Y-2082342D01*
X1185859Y-2092756D01*
X1191193Y-2097836D01*
X1201607Y-2103170D01*
X1232595Y-2113584D01*
X1243009Y-2118664D01*
X1248343Y-2123998D01*
X1253423Y-2134412D01*
X1253423Y-2149906D01*
X1243009Y-2160320D01*
X1227515Y-2165400D01*
X1206687Y-2165400D01*
X1191193Y-2160320D01*
X1180779Y-2149906D01*
X1287713Y-2056434D02*
G01*
X1329369Y-2108250D01*
X1329369Y-2165400D01*
X1370771Y-2056434D02*
G01*
X1329369Y-2108250D01*
X2133587Y-2640672D02*
G01*
X2133587Y-2749638D01*
X2133587Y-2640672D02*
G01*
X2180323Y-2640672D01*
X2195817Y-2645752D01*
X2201151Y-2650832D01*
X2206231Y-2661246D01*
X2206231Y-2676994D01*
X2201151Y-2687408D01*
X2195817Y-2692488D01*
X2180323Y-2697822D01*
X2133587Y-2697822D01*
X2240521Y-2640672D02*
G01*
X2240521Y-2749638D01*
X2240521Y-2640672D02*
G01*
X2287257Y-2640672D01*
X2303005Y-2645752D01*
X2308085Y-2650832D01*
X2313419Y-2661246D01*
X2313419Y-2671660D01*
X2308085Y-2682074D01*
X2303005Y-2687408D01*
X2287257Y-2692488D01*
X2240521Y-2692488D01*
X2277097Y-2692488D02*
G01*
X2313419Y-2749638D01*
X2378697Y-2640672D02*
G01*
X2368537Y-2645752D01*
X2358123Y-2656166D01*
X2352789Y-2666580D01*
X2347709Y-2682074D01*
X2347709Y-2707982D01*
X2352789Y-2723730D01*
X2358123Y-2734144D01*
X2368537Y-2744558D01*
X2378697Y-2749638D01*
X2399525Y-2749638D01*
X2409939Y-2744558D01*
X2420353Y-2734144D01*
X2425687Y-2723730D01*
X2430767Y-2707982D01*
X2430767Y-2682074D01*
X2425687Y-2666580D01*
X2420353Y-2656166D01*
X2409939Y-2645752D01*
X2399525Y-2640672D01*
X2378697Y-2640672D01*
X2543035Y-2666580D02*
G01*
X2537701Y-2656166D01*
X2527287Y-2645752D01*
X2517127Y-2640672D01*
X2496299Y-2640672D01*
X2485885Y-2645752D01*
X2475471Y-2656166D01*
X2470137Y-2666580D01*
X2465057Y-2682074D01*
X2465057Y-2707982D01*
X2470137Y-2723730D01*
X2475471Y-2734144D01*
X2485885Y-2744558D01*
X2496299Y-2749638D01*
X2517127Y-2749638D01*
X2527287Y-2744558D01*
X2537701Y-2734144D01*
X2543035Y-2723730D01*
X2543035Y-2707982D01*
X2517127Y-2707982D02*
G01*
X2543035Y-2707982D01*
X3409975Y-2828645D02*
G01*
X3519195Y-2828645D01*
X3409975Y-2864967D02*
G01*
X3409975Y-2792323D01*
X3409975Y-2758033D02*
G01*
X3519195Y-2685135D01*
X3409975Y-2685135D02*
G01*
X3519195Y-2758033D01*
X3206800Y-2864942D02*
G01*
X3316020Y-2864942D01*
X3206800Y-2864942D02*
G01*
X3206800Y-2818206D01*
X3211880Y-2802712D01*
X3217214Y-2797378D01*
X3227628Y-2792298D01*
X3238042Y-2792298D01*
X3248456Y-2797378D01*
X3253536Y-2802712D01*
X3258870Y-2818206D01*
X3258870Y-2864942D01*
X3258870Y-2828620D02*
G01*
X3316020Y-2792298D01*
X3206800Y-2758008D02*
G01*
X3316020Y-2685364D01*
X3206800Y-2685364D02*
G01*
X3316020Y-2758008D01*
X3029508Y-2786964D02*
G01*
X3019094Y-2792298D01*
X3008680Y-2802712D01*
X3003600Y-2813126D01*
X3003600Y-2833954D01*
X3008680Y-2844114D01*
X3019094Y-2854528D01*
X3029508Y-2859862D01*
X3045256Y-2864942D01*
X3071164Y-2864942D01*
X3086658Y-2859862D01*
X3097072Y-2854528D01*
X3107486Y-2844114D01*
X3112820Y-2833954D01*
X3112820Y-2813126D01*
X3107486Y-2802712D01*
X3097072Y-2792298D01*
X3086658Y-2786964D01*
X3071164Y-2786964D01*
X3071164Y-2813126D02*
G01*
X3071164Y-2786964D01*
X1676425Y-1459509D02*
G01*
X1676425Y-1568475D01*
X1676425Y-1568475D02*
G01*
X1738655Y-1568475D01*
X1754403Y-1688617D02*
G01*
X1749069Y-1678203D01*
X1738655Y-1667789D01*
X1728241Y-1662709D01*
X1707667Y-1662709D01*
X1697253Y-1667789D01*
X1686839Y-1678203D01*
X1681505Y-1688617D01*
X1676425Y-1704111D01*
X1676425Y-1730273D01*
X1681505Y-1745767D01*
X1686839Y-1756181D01*
X1697253Y-1766595D01*
X1707667Y-1771675D01*
X1728241Y-1771675D01*
X1738655Y-1766595D01*
X1749069Y-1756181D01*
X1754403Y-1745767D01*
X1754403Y-1730273D01*
X1728241Y-1730273D02*
G01*
X1754403Y-1730273D01*
X1676425Y-1865909D02*
G01*
X1676425Y-1974875D01*
X1676425Y-1865909D02*
G01*
X1723161Y-1865909D01*
X1738655Y-1870989D01*
X1743989Y-1876323D01*
X1749069Y-1886737D01*
X1749069Y-1897151D01*
X1743989Y-1907311D01*
X1738655Y-1912645D01*
X1723161Y-1917725D01*
X1676425Y-1917725D02*
G01*
X1723161Y-1917725D01*
X1738655Y-1923059D01*
X1743989Y-1928139D01*
X1749069Y-1938553D01*
X1749069Y-1954301D01*
X1743989Y-1964461D01*
X1738655Y-1969795D01*
X1723161Y-1974875D01*
X1676425Y-1974875D01*
X1754403Y-2095119D02*
G01*
X1749069Y-2084705D01*
X1738655Y-2074290D01*
X1728241Y-2068957D01*
X1707667Y-2068957D01*
X1697253Y-2074290D01*
X1686839Y-2084705D01*
X1681505Y-2095119D01*
X1676425Y-2110613D01*
X1676425Y-2136521D01*
X1681505Y-2152269D01*
X1686839Y-2162682D01*
X1697253Y-2173097D01*
X1707667Y-2178177D01*
X1728241Y-2178177D01*
X1738655Y-2173097D01*
X1749069Y-2162682D01*
X1754403Y-2152269D01*
X1754403Y-2136521D01*
X1728241Y-2136521D02*
G01*
X1754403Y-2136521D01*
X1918715Y-2743200D02*
G01*
X1809750Y-2743200D01*
X1918715Y-2743200D02*
G01*
X1918715Y-2789936D01*
X1913636Y-2805430D01*
X1908302Y-2810764D01*
X1897888Y-2815844D01*
X1887473Y-2815844D01*
X1877059Y-2810764D01*
X1871979Y-2805430D01*
X1866900Y-2789936D01*
X1866900Y-2743200D01*
X1866900Y-2779522D02*
G01*
X1809750Y-2815844D01*
X1892807Y-2855468D02*
G01*
X1897888Y-2855468D01*
X1908302Y-2860548D01*
X1913636Y-2865882D01*
X1918715Y-2876296D01*
X1918715Y-2896870D01*
X1913636Y-2907284D01*
X1908302Y-2912618D01*
X1897888Y-2917698D01*
X1887473Y-2917698D01*
X1877059Y-2912618D01*
X1861565Y-2902204D01*
X1809750Y-2850134D01*
X1809750Y-2923032D01*
X1410207Y-2821178D02*
G01*
X1420621Y-2815844D01*
X1431036Y-2805430D01*
X1436115Y-2795270D01*
X1436115Y-2774442D01*
X1431036Y-2764028D01*
X1420621Y-2753614D01*
X1410207Y-2748280D01*
X1394459Y-2743200D01*
X1368552Y-2743200D01*
X1353057Y-2748280D01*
X1342643Y-2753614D01*
X1332229Y-2764028D01*
X1327150Y-2774442D01*
X1327150Y-2795270D01*
X1332229Y-2805430D01*
X1342643Y-2815844D01*
X1353057Y-2821178D01*
X1415288Y-2855468D02*
G01*
X1420621Y-2865882D01*
X1436115Y-2881376D01*
X1327150Y-2881376D01*
X1677415Y-2736799D02*
G01*
X1568450Y-2736799D01*
X1677415Y-2736799D02*
G01*
X1677415Y-2783535D01*
X1672336Y-2799029D01*
X1667002Y-2804363D01*
X1656588Y-2809443D01*
X1646173Y-2809443D01*
X1635759Y-2804363D01*
X1630679Y-2799029D01*
X1625600Y-2783535D01*
X1625600Y-2736799D01*
X1625600Y-2773121D02*
G01*
X1568450Y-2809443D01*
X1656588Y-2843733D02*
G01*
X1661921Y-2854147D01*
X1677415Y-2869895D01*
X1568450Y-2869895D01*
X1737090Y-2536819D02*
G01*
X1737090Y-2665313D01*
X1920509Y-2665313D01*
X1920509Y-2536819D01*
X1737090Y-2441580D02*
G01*
X1737090Y-2313086D01*
X1920509Y-2313086D01*
X1920509Y-2441580D01*
X1436560Y-2670319D02*
G01*
X1436560Y-2529319D01*
X1255839Y-2529319D02*
G01*
X1255839Y-2670319D01*
X1271079Y-2685559D02*
G01*
X1421320Y-2685559D01*
X1436560Y-2308080D02*
G01*
X1436560Y-2449080D01*
X1255839Y-2449080D02*
G01*
X1255839Y-2308080D01*
X1271079Y-2292840D02*
G01*
X1421320Y-2292840D01*
D11*
X2125700Y-2817197D02*
G01*
X2725699Y-2817200D01*
X2125700Y-3177202D02*
G01*
X2725699Y-3177199D01*
X2725699Y-2817200D02*
G01*
X2725699Y-2914644D01*
X2725699Y-3079755D02*
G01*
X2725699Y-3177199D01*
X2125700Y-3177199D02*
G01*
X2125700Y-3079755D01*
X2125700Y-2914644D02*
G01*
X2125700Y-2817200D01*
X2175700Y-2887200D02*
G01*
X2685699Y-2887200D01*
X2685699Y-2914091D01*
X2685699Y-3080308D02*
G01*
X2685699Y-3117199D01*
X2175700Y-3117199D01*
X2175700Y-3080308D01*
X2175700Y-2914091D02*
G01*
X2175700Y-2887200D01*
X2325700Y-2937205D02*
G01*
X2525699Y-2937205D01*
X2525699Y-3057194D01*
X2325700Y-3057194D01*
X2325700Y-2937205D01*
D10*
X1679209Y-2441580D02*
G01*
X1679209Y-2313086D01*
X1495790Y-2313086D01*
X1495790Y-2441580D01*
X1679209Y-2536819D02*
G01*
X1679209Y-2665313D01*
X1495790Y-2665313D01*
X1495790Y-2536819D01*
X530979Y-2542560D02*
G01*
X1196220Y-2542560D01*
X1196220Y-2816839D01*
X530979Y-2816839D01*
X530979Y-2542560D01*
D11*
X4582800Y-2449408D02*
G01*
X3936210Y-2449408D01*
X4582800Y-649406D02*
G01*
X3937802Y-649406D01*
X4582800Y-2449408D02*
G01*
X4582800Y-649406D01*
X3954404Y-2449408D02*
G01*
X3954404Y-649406D01*
X3903517Y-2451107D02*
G01*
X3954404Y-2451107D01*
X2032802Y-2189022D02*
G01*
X2032802Y-2451107D01*
X2116282Y-2451107D01*
X2116282Y-649406D02*
G01*
X2032802Y-649406D01*
X2032802Y-909794D01*
X3954404Y-649406D02*
G01*
X3903517Y-649406D01*
D10*
G75*
G01*
X1255840Y-2670320D02*
G03*
X1271079Y-2685560I15239J0D01*
G75*
G01*
X1421320Y-2685560D02*
G03*
X1436560Y-2670320I0J15240D01*
G75*
G01*
X1255840Y-2308080D02*
G02*
X1271079Y-2292840I15239J0D01*
G75*
G01*
X1421320Y-2292840D02*
G02*
X1436560Y-2308080I0J-15240D01*
M02*
