G04 Layer: TopLayer*
G04 EasyEDA v6.5.34, 2023-10-15 23:32:28*
G04 71d41e4822c04cdf8dbe640198561a58,c7e5a72684d24d89a273277b68740de8,10*
G04 Gerber Generator version 0.2*
G04 Scale: 100 percent, Rotated: No, Reflected: No *
G04 Dimensions in millimeters *
G04 leading zeros omitted , absolute positions ,4 integer and 5 decimal *
%FSLAX45Y45*%
%MOMM*%

%AMMACRO1*21,1,$1,$2,0,0,$3*%
%ADD10C,0.5000*%
%ADD11C,0.2540*%
%ADD12C,1.5240*%
%ADD13R,1.5240X3.0000*%
%ADD14MACRO1,1.377X1.1325X0.0000*%
%ADD15R,1.3770X1.1325*%
%ADD16MACRO1,1.35X1.41X0.0000*%
%ADD17R,1.3500X1.4100*%
%ADD18R,1.5000X1.0000*%
%ADD19R,0.9800X2.4700*%
%ADD20MACRO1,3.6X2.47X0.0000*%
%ADD21R,0.9500X2.1000*%
%ADD22R,2.1000X0.9500*%
%ADD23R,0.9000X0.9000*%
%ADD24C,0.6200*%
%ADD25C,0.0101*%

%LPD*%
G36*
X150926Y-3274110D02*
G01*
X135534Y-3273196D01*
X121869Y-3270808D01*
X108458Y-3266897D01*
X95656Y-3261512D01*
X83515Y-3254705D01*
X72186Y-3246577D01*
X61874Y-3237280D01*
X52679Y-3226917D01*
X44704Y-3215538D01*
X37998Y-3203295D01*
X32715Y-3190392D01*
X28956Y-3177082D01*
X26670Y-3163316D01*
X25908Y-3149041D01*
X25908Y-150977D01*
X26822Y-135534D01*
X29209Y-121869D01*
X33121Y-108508D01*
X38506Y-95707D01*
X45262Y-83566D01*
X53390Y-72237D01*
X62687Y-61925D01*
X73101Y-52730D01*
X84480Y-44704D01*
X96672Y-38049D01*
X109575Y-32766D01*
X122935Y-29006D01*
X136652Y-26720D01*
X150926Y-25958D01*
X4649012Y-25958D01*
X4664456Y-26873D01*
X4678172Y-29260D01*
X4691481Y-33172D01*
X4704283Y-38557D01*
X4716424Y-45313D01*
X4727752Y-53441D01*
X4738065Y-62738D01*
X4747260Y-73152D01*
X4755286Y-84531D01*
X4761941Y-96723D01*
X4767224Y-109626D01*
X4771034Y-122986D01*
X4773320Y-136702D01*
X4774082Y-150977D01*
X4774082Y-3149041D01*
X4773168Y-3164484D01*
X4770729Y-3178149D01*
X4766818Y-3191510D01*
X4761433Y-3204362D01*
X4754727Y-3216503D01*
X4746548Y-3227781D01*
X4737252Y-3238093D01*
X4726838Y-3247339D01*
X4715459Y-3255314D01*
X4703267Y-3262020D01*
X4690414Y-3267252D01*
X4677054Y-3271062D01*
X4663338Y-3273348D01*
X4649012Y-3274110D01*
X1775460Y-3274110D01*
X1771548Y-3273348D01*
X1768297Y-3271113D01*
X1766062Y-3267862D01*
X1765350Y-3263950D01*
X1766062Y-3260039D01*
X1768297Y-3256788D01*
X1772818Y-3252215D01*
X1775866Y-3247339D01*
X1777746Y-3241852D01*
X1778507Y-3235553D01*
X1778507Y-3167430D01*
X1720900Y-3167430D01*
X1720900Y-3263950D01*
X1720088Y-3267862D01*
X1717852Y-3271113D01*
X1714550Y-3273348D01*
X1710689Y-3274110D01*
X1642110Y-3274110D01*
X1638198Y-3273348D01*
X1634947Y-3271113D01*
X1632712Y-3267862D01*
X1632000Y-3263950D01*
X1632000Y-3167430D01*
X1574241Y-3167430D01*
X1574241Y-3235553D01*
X1575054Y-3241852D01*
X1576882Y-3247339D01*
X1579981Y-3252215D01*
X1584502Y-3256788D01*
X1586738Y-3260039D01*
X1587449Y-3263950D01*
X1586738Y-3267862D01*
X1584502Y-3271113D01*
X1581200Y-3273348D01*
X1577340Y-3274110D01*
X1546860Y-3274110D01*
X1542948Y-3273348D01*
X1539697Y-3271113D01*
X1537462Y-3267862D01*
X1536750Y-3263950D01*
X1537462Y-3260039D01*
X1539697Y-3256788D01*
X1544218Y-3252215D01*
X1547266Y-3247339D01*
X1549146Y-3241852D01*
X1549908Y-3235553D01*
X1549908Y-2936697D01*
X1549146Y-2930398D01*
X1547266Y-2924911D01*
X1544218Y-2920034D01*
X1540154Y-2915869D01*
X1535176Y-2912821D01*
X1529740Y-2910941D01*
X1523390Y-2910230D01*
X1372209Y-2910230D01*
X1365859Y-2910941D01*
X1360424Y-2912821D01*
X1355445Y-2915869D01*
X1351381Y-2920034D01*
X1348282Y-2924911D01*
X1346454Y-2930398D01*
X1345641Y-2936697D01*
X1345641Y-3024936D01*
X1344879Y-3028797D01*
X1342694Y-3032099D01*
X1339443Y-3034334D01*
X1335582Y-3035046D01*
X1333347Y-3035046D01*
X1329486Y-3034334D01*
X1326184Y-3032099D01*
X1221282Y-2927451D01*
X1217879Y-2924352D01*
X1214323Y-2921609D01*
X1210665Y-2919222D01*
X1206601Y-2917139D01*
X1202588Y-2915513D01*
X1198270Y-2914142D01*
X1194054Y-2913176D01*
X1189532Y-2912618D01*
X1178661Y-2912414D01*
X1174750Y-2911652D01*
X1171448Y-2909417D01*
X1169263Y-2906115D01*
X1168501Y-2902204D01*
X1168501Y-2840278D01*
X1167790Y-2833979D01*
X1165860Y-2828442D01*
X1162812Y-2823565D01*
X1158697Y-2819501D01*
X1153769Y-2816453D01*
X1148334Y-2814523D01*
X1141984Y-2813761D01*
X1045159Y-2813761D01*
X1038809Y-2814523D01*
X1033373Y-2816453D01*
X1028446Y-2819501D01*
X1024382Y-2823565D01*
X1021283Y-2828442D01*
X1019352Y-2833979D01*
X1018692Y-2840278D01*
X1018692Y-3086150D01*
X1019352Y-3092500D01*
X1021283Y-3097936D01*
X1024382Y-3102813D01*
X1028446Y-3106877D01*
X1033373Y-3110026D01*
X1038809Y-3111906D01*
X1045159Y-3112617D01*
X1141984Y-3112617D01*
X1148334Y-3111906D01*
X1153769Y-3110026D01*
X1158697Y-3106877D01*
X1162812Y-3102813D01*
X1165860Y-3097936D01*
X1167790Y-3092500D01*
X1168501Y-3086150D01*
X1168501Y-3043072D01*
X1169263Y-3039211D01*
X1171448Y-3035909D01*
X1174750Y-3033674D01*
X1178610Y-3032912D01*
X1182522Y-3033674D01*
X1185824Y-3035909D01*
X1271981Y-3121863D01*
X1275384Y-3124911D01*
X1278991Y-3127705D01*
X1282649Y-3130092D01*
X1286713Y-3132175D01*
X1290675Y-3133801D01*
X1294993Y-3135172D01*
X1299311Y-3136138D01*
X1303731Y-3136646D01*
X1308354Y-3136900D01*
X1335582Y-3136900D01*
X1339443Y-3137611D01*
X1342694Y-3139897D01*
X1344879Y-3143199D01*
X1345641Y-3147060D01*
X1345641Y-3235553D01*
X1346454Y-3241852D01*
X1348282Y-3247339D01*
X1351381Y-3252215D01*
X1355902Y-3256788D01*
X1358138Y-3260039D01*
X1358849Y-3263950D01*
X1358138Y-3267862D01*
X1355902Y-3271113D01*
X1352600Y-3273348D01*
X1348740Y-3274110D01*
G37*

%LPC*%
G36*
X4550054Y-3177540D02*
G01*
X4565345Y-3176574D01*
X4580534Y-3173780D01*
X4595164Y-3169259D01*
X4609236Y-3162909D01*
X4622393Y-3154934D01*
X4634534Y-3145434D01*
X4645406Y-3134563D01*
X4654905Y-3122472D01*
X4662881Y-3109264D01*
X4669231Y-3095244D01*
X4673752Y-3080562D01*
X4676597Y-3065424D01*
X4677511Y-3050032D01*
X4676597Y-3034588D01*
X4673752Y-3019501D01*
X4669231Y-3004769D01*
X4662881Y-2990799D01*
X4654905Y-2977591D01*
X4645406Y-2965500D01*
X4634534Y-2954629D01*
X4622393Y-2945130D01*
X4609236Y-2937154D01*
X4595164Y-2930804D01*
X4580534Y-2926232D01*
X4565345Y-2923489D01*
X4550054Y-2922524D01*
X4534611Y-2923489D01*
X4519523Y-2926232D01*
X4504791Y-2930804D01*
X4490720Y-2937154D01*
X4477562Y-2945130D01*
X4465421Y-2954629D01*
X4454550Y-2965500D01*
X4445050Y-2977591D01*
X4437075Y-2990799D01*
X4430776Y-3004769D01*
X4426204Y-3019501D01*
X4423410Y-3034588D01*
X4422495Y-3050032D01*
X4423410Y-3065424D01*
X4426204Y-3080562D01*
X4430776Y-3095244D01*
X4437075Y-3109264D01*
X4445050Y-3122472D01*
X4454550Y-3134563D01*
X4465421Y-3145434D01*
X4477562Y-3154934D01*
X4490720Y-3162909D01*
X4504791Y-3169259D01*
X4519523Y-3173780D01*
X4534611Y-3176574D01*
G37*
G36*
X249986Y-3177540D02*
G01*
X265379Y-3176574D01*
X280517Y-3173780D01*
X295198Y-3169259D01*
X309219Y-3162909D01*
X322427Y-3154934D01*
X334518Y-3145434D01*
X345389Y-3134563D01*
X354888Y-3122472D01*
X362864Y-3109264D01*
X369214Y-3095244D01*
X373786Y-3080562D01*
X376529Y-3065424D01*
X377494Y-3050032D01*
X376529Y-3034588D01*
X373786Y-3019501D01*
X369214Y-3004769D01*
X362864Y-2990799D01*
X354888Y-2977591D01*
X345389Y-2965500D01*
X334518Y-2954629D01*
X322427Y-2945130D01*
X309219Y-2937154D01*
X295198Y-2930804D01*
X280517Y-2926232D01*
X265379Y-2923489D01*
X249986Y-2922524D01*
X234594Y-2923489D01*
X219456Y-2926232D01*
X204774Y-2930804D01*
X190754Y-2937154D01*
X177546Y-2945130D01*
X165455Y-2954629D01*
X154584Y-2965500D01*
X145084Y-2977591D01*
X137109Y-2990799D01*
X130759Y-3004769D01*
X126187Y-3019501D01*
X123444Y-3034588D01*
X122478Y-3050032D01*
X123444Y-3065424D01*
X126187Y-3080562D01*
X130759Y-3095244D01*
X137109Y-3109264D01*
X145084Y-3122472D01*
X154584Y-3134563D01*
X165455Y-3145434D01*
X177546Y-3154934D01*
X190754Y-3162909D01*
X204774Y-3169259D01*
X219456Y-3173780D01*
X234594Y-3176574D01*
G37*
G36*
X585165Y-3112617D02*
G01*
X602742Y-3112617D01*
X602742Y-3031337D01*
X558647Y-3031337D01*
X558647Y-3086150D01*
X559358Y-3092500D01*
X561289Y-3097936D01*
X564438Y-3102813D01*
X568452Y-3106877D01*
X573379Y-3110026D01*
X578815Y-3111906D01*
G37*
G36*
X664413Y-3112617D02*
G01*
X681990Y-3112617D01*
X688340Y-3111906D01*
X693775Y-3110026D01*
X698754Y-3106877D01*
X702767Y-3102813D01*
X705866Y-3097936D01*
X707796Y-3092500D01*
X708507Y-3086150D01*
X708507Y-3031337D01*
X664413Y-3031337D01*
G37*
G36*
X815136Y-3112617D02*
G01*
X912012Y-3112617D01*
X918311Y-3111906D01*
X923798Y-3110026D01*
X928674Y-3106877D01*
X932789Y-3102813D01*
X935837Y-3097936D01*
X937768Y-3092500D01*
X938479Y-3086150D01*
X938479Y-2840278D01*
X937768Y-2833979D01*
X935837Y-2828442D01*
X932789Y-2823565D01*
X928674Y-2819501D01*
X923798Y-2816453D01*
X921308Y-2815590D01*
X917752Y-2813405D01*
X915314Y-2810052D01*
X914501Y-2805938D01*
X914501Y-2555798D01*
X915263Y-2551887D01*
X917448Y-2548534D01*
X920750Y-2546400D01*
X924661Y-2545588D01*
X1043025Y-2545588D01*
X1049324Y-2544927D01*
X1054862Y-2542997D01*
X1059738Y-2539949D01*
X1063802Y-2535834D01*
X1066850Y-2530957D01*
X1068781Y-2525471D01*
X1069492Y-2519172D01*
X1069492Y-2457196D01*
X1070254Y-2453284D01*
X1072438Y-2450033D01*
X1075740Y-2447798D01*
X1079652Y-2447036D01*
X1242618Y-2447036D01*
X1246479Y-2447798D01*
X1249781Y-2450033D01*
X1252016Y-2453284D01*
X1252778Y-2457196D01*
X1252778Y-2459126D01*
X1253490Y-2465476D01*
X1255420Y-2470861D01*
X1258468Y-2475788D01*
X1262583Y-2479903D01*
X1266647Y-2483459D01*
X1268222Y-2487168D01*
X1268222Y-2491282D01*
X1266647Y-2494991D01*
X1262583Y-2498547D01*
X1258468Y-2502611D01*
X1255420Y-2507488D01*
X1253490Y-2512974D01*
X1252778Y-2519222D01*
X1252778Y-2547569D01*
X1306068Y-2547569D01*
X1306068Y-2495804D01*
X1306880Y-2491892D01*
X1309065Y-2488590D01*
X1312367Y-2486406D01*
X1316228Y-2485644D01*
X1376172Y-2485644D01*
X1380032Y-2486406D01*
X1383334Y-2488590D01*
X1385519Y-2491892D01*
X1386281Y-2495804D01*
X1386281Y-2547569D01*
X1439570Y-2547569D01*
X1439570Y-2519222D01*
X1438859Y-2512974D01*
X1436979Y-2507488D01*
X1433880Y-2502611D01*
X1429816Y-2498547D01*
X1425752Y-2494991D01*
X1424127Y-2491282D01*
X1424127Y-2487168D01*
X1425752Y-2483459D01*
X1429816Y-2479903D01*
X1433880Y-2475788D01*
X1436979Y-2470861D01*
X1438859Y-2465476D01*
X1439570Y-2459126D01*
X1439570Y-2437993D01*
X1440332Y-2434082D01*
X1442618Y-2430830D01*
X1445920Y-2428595D01*
X1449781Y-2427833D01*
X1482547Y-2427833D01*
X1486509Y-2428595D01*
X1489811Y-2430830D01*
X1491945Y-2434082D01*
X1492758Y-2437993D01*
X1492758Y-2445258D01*
X1493418Y-2451608D01*
X1495348Y-2457043D01*
X1498396Y-2461971D01*
X1502511Y-2465984D01*
X1507388Y-2469134D01*
X1512925Y-2471064D01*
X1519174Y-2471775D01*
X1655775Y-2471775D01*
X1662074Y-2471064D01*
X1667611Y-2469134D01*
X1672488Y-2465984D01*
X1676552Y-2461971D01*
X1679600Y-2457043D01*
X1681530Y-2451608D01*
X1682242Y-2445258D01*
X1682242Y-2333142D01*
X1681530Y-2326792D01*
X1679600Y-2321356D01*
X1676552Y-2316480D01*
X1672488Y-2312365D01*
X1667611Y-2309317D01*
X1662074Y-2307386D01*
X1655775Y-2306675D01*
X1519174Y-2306675D01*
X1512925Y-2307386D01*
X1507388Y-2309317D01*
X1502511Y-2312365D01*
X1498396Y-2316480D01*
X1495348Y-2321356D01*
X1493418Y-2326792D01*
X1492758Y-2333142D01*
X1492758Y-2340457D01*
X1491945Y-2344369D01*
X1489811Y-2347620D01*
X1486509Y-2349855D01*
X1482547Y-2350617D01*
X1449781Y-2350617D01*
X1445920Y-2349855D01*
X1442618Y-2347620D01*
X1440332Y-2344369D01*
X1439570Y-2340457D01*
X1439570Y-2319274D01*
X1438859Y-2312974D01*
X1436979Y-2307488D01*
X1433880Y-2302611D01*
X1429816Y-2298446D01*
X1424940Y-2295448D01*
X1419402Y-2293518D01*
X1413154Y-2292807D01*
X1279245Y-2292807D01*
X1272997Y-2293518D01*
X1267460Y-2295448D01*
X1262583Y-2298446D01*
X1258468Y-2302611D01*
X1255420Y-2307488D01*
X1253490Y-2312974D01*
X1252778Y-2319274D01*
X1252778Y-2335072D01*
X1252016Y-2338933D01*
X1249781Y-2342235D01*
X1246479Y-2344470D01*
X1242618Y-2345232D01*
X1079652Y-2345232D01*
X1075740Y-2344470D01*
X1072438Y-2342235D01*
X1070254Y-2338933D01*
X1069492Y-2335072D01*
X1069492Y-2273300D01*
X1068781Y-2266950D01*
X1066850Y-2261514D01*
X1063802Y-2256637D01*
X1059738Y-2252522D01*
X1054862Y-2249424D01*
X1049324Y-2247544D01*
X1043025Y-2246833D01*
X684123Y-2246833D01*
X677824Y-2247544D01*
X672388Y-2249424D01*
X667461Y-2252522D01*
X663346Y-2256637D01*
X660298Y-2261514D01*
X658368Y-2266950D01*
X657707Y-2273300D01*
X657707Y-2335072D01*
X656894Y-2338933D01*
X654710Y-2342235D01*
X651408Y-2344470D01*
X647496Y-2345232D01*
X618134Y-2345232D01*
X614222Y-2344470D01*
X610971Y-2342235D01*
X549198Y-2280462D01*
X546963Y-2277211D01*
X546201Y-2273300D01*
X546201Y-926846D01*
X546963Y-923036D01*
X549198Y-919734D01*
X706932Y-762203D01*
X710234Y-759968D01*
X714095Y-759206D01*
X720242Y-759206D01*
X723696Y-759815D01*
X726744Y-761542D01*
X730046Y-766013D01*
X738530Y-776681D01*
X748334Y-786180D01*
X759307Y-794258D01*
X771448Y-800912D01*
X774700Y-803757D01*
X775919Y-805738D01*
X779729Y-804926D01*
X783996Y-805738D01*
X797255Y-808888D01*
X810818Y-810260D01*
X824433Y-809802D01*
X837895Y-807516D01*
X845515Y-805180D01*
X849274Y-804722D01*
X852322Y-805535D01*
X854100Y-802792D01*
X857148Y-800608D01*
X863295Y-797763D01*
X874776Y-790397D01*
X885190Y-781608D01*
X894334Y-771499D01*
X902055Y-760272D01*
X908202Y-748080D01*
X912672Y-735177D01*
X915416Y-721817D01*
X916330Y-708253D01*
X915416Y-694639D01*
X912672Y-681278D01*
X908202Y-668375D01*
X902055Y-656183D01*
X894334Y-644956D01*
X885190Y-634847D01*
X874776Y-626059D01*
X869848Y-622858D01*
X867308Y-620572D01*
X865682Y-617626D01*
X865124Y-614324D01*
X865124Y-609498D01*
X865936Y-605637D01*
X868121Y-602335D01*
X1048258Y-422198D01*
X1051509Y-420014D01*
X1055420Y-419252D01*
X2092350Y-419252D01*
X2096211Y-420014D01*
X2099513Y-422198D01*
X2101748Y-425500D01*
X2102561Y-429412D01*
X2101748Y-433273D01*
X2099513Y-436575D01*
X1066241Y-1469847D01*
X1062939Y-1472082D01*
X1059027Y-1472844D01*
X915162Y-1472844D01*
X911453Y-1472184D01*
X908303Y-1470202D01*
X906018Y-1467256D01*
X902055Y-1459382D01*
X894334Y-1448155D01*
X885190Y-1438046D01*
X874776Y-1429258D01*
X863295Y-1421892D01*
X860552Y-1420622D01*
X857503Y-1418386D01*
X855421Y-1415186D01*
X854710Y-1411427D01*
X855421Y-1407668D01*
X857503Y-1404467D01*
X860552Y-1402232D01*
X863295Y-1400962D01*
X874776Y-1393596D01*
X885190Y-1384808D01*
X894334Y-1374698D01*
X902055Y-1363472D01*
X908202Y-1351280D01*
X912672Y-1338376D01*
X915416Y-1324965D01*
X916330Y-1311452D01*
X915416Y-1297838D01*
X912672Y-1284427D01*
X908202Y-1271574D01*
X902055Y-1259382D01*
X894334Y-1248156D01*
X885190Y-1237996D01*
X874776Y-1229207D01*
X863295Y-1221892D01*
X860552Y-1220622D01*
X857503Y-1218387D01*
X855421Y-1215186D01*
X854710Y-1211427D01*
X855421Y-1207668D01*
X857503Y-1204468D01*
X860552Y-1202232D01*
X863295Y-1200962D01*
X874776Y-1193546D01*
X885190Y-1184757D01*
X894334Y-1174699D01*
X902055Y-1163472D01*
X908202Y-1151280D01*
X912672Y-1138377D01*
X915416Y-1125016D01*
X916330Y-1111453D01*
X915416Y-1097788D01*
X912672Y-1084478D01*
X908202Y-1071575D01*
X902055Y-1059383D01*
X894334Y-1048156D01*
X885190Y-1038047D01*
X874776Y-1029258D01*
X863295Y-1021892D01*
X860552Y-1020622D01*
X857503Y-1018387D01*
X855421Y-1015187D01*
X854913Y-1012494D01*
X852932Y-1013968D01*
X849274Y-1014933D01*
X845515Y-1014476D01*
X837895Y-1012139D01*
X824433Y-1009853D01*
X810818Y-1009396D01*
X797255Y-1010767D01*
X783590Y-1014069D01*
X779729Y-1014730D01*
X775919Y-1013917D01*
X773531Y-1012291D01*
X773531Y-1013561D01*
X771753Y-1017524D01*
X768502Y-1020318D01*
X759307Y-1025398D01*
X748334Y-1033475D01*
X738530Y-1042974D01*
X730046Y-1053642D01*
X724154Y-1063701D01*
X721258Y-1066800D01*
X717397Y-1068476D01*
X713181Y-1068425D01*
X709320Y-1066698D01*
X704342Y-1062990D01*
X695706Y-1058672D01*
X686511Y-1055827D01*
X676960Y-1054608D01*
X667308Y-1055014D01*
X657860Y-1057046D01*
X648919Y-1060653D01*
X640689Y-1065682D01*
X633476Y-1072083D01*
X627430Y-1079601D01*
X622706Y-1087983D01*
X619506Y-1097076D01*
X617880Y-1106627D01*
X617880Y-1116228D01*
X619506Y-1125778D01*
X622706Y-1134872D01*
X627430Y-1143254D01*
X633476Y-1150772D01*
X640689Y-1157173D01*
X648919Y-1162202D01*
X657860Y-1165809D01*
X667308Y-1167841D01*
X676960Y-1168247D01*
X686511Y-1167028D01*
X695706Y-1164183D01*
X704342Y-1159865D01*
X709320Y-1156157D01*
X713181Y-1154430D01*
X717397Y-1154379D01*
X721258Y-1156055D01*
X724154Y-1159154D01*
X730046Y-1169212D01*
X738530Y-1179880D01*
X748334Y-1189380D01*
X759307Y-1197457D01*
X768502Y-1202537D01*
X771753Y-1205280D01*
X773531Y-1209294D01*
X773531Y-1213561D01*
X771753Y-1217472D01*
X768502Y-1220317D01*
X759307Y-1225397D01*
X748334Y-1233474D01*
X738530Y-1242974D01*
X730046Y-1253642D01*
X724154Y-1263700D01*
X721258Y-1266799D01*
X717397Y-1268476D01*
X713181Y-1268425D01*
X709320Y-1266698D01*
X704342Y-1262938D01*
X695706Y-1258671D01*
X686511Y-1255826D01*
X676960Y-1254607D01*
X667308Y-1255014D01*
X657860Y-1257046D01*
X648919Y-1260652D01*
X640689Y-1265682D01*
X633476Y-1272082D01*
X627430Y-1279601D01*
X622706Y-1287983D01*
X619506Y-1297076D01*
X617880Y-1306626D01*
X617880Y-1316177D01*
X619506Y-1325778D01*
X622706Y-1334871D01*
X627430Y-1343253D01*
X633476Y-1350772D01*
X640689Y-1357172D01*
X648919Y-1362202D01*
X657860Y-1365808D01*
X667308Y-1367840D01*
X676960Y-1368247D01*
X686511Y-1366977D01*
X695706Y-1364183D01*
X704342Y-1359865D01*
X709320Y-1356156D01*
X713181Y-1354429D01*
X717397Y-1354378D01*
X721258Y-1356055D01*
X724154Y-1359154D01*
X730046Y-1369212D01*
X738530Y-1379880D01*
X748334Y-1389380D01*
X759307Y-1397457D01*
X768502Y-1402537D01*
X771753Y-1405331D01*
X773531Y-1409242D01*
X773531Y-1413560D01*
X771753Y-1417523D01*
X768502Y-1420317D01*
X759307Y-1425397D01*
X748334Y-1433474D01*
X738530Y-1442974D01*
X730046Y-1453642D01*
X723087Y-1465376D01*
X717804Y-1477924D01*
X714197Y-1491030D01*
X712419Y-1504594D01*
X712419Y-1518259D01*
X714197Y-1531772D01*
X717804Y-1544929D01*
X723087Y-1557477D01*
X730046Y-1569161D01*
X738530Y-1579880D01*
X748334Y-1589379D01*
X759307Y-1597456D01*
X768502Y-1602536D01*
X771753Y-1605330D01*
X773531Y-1609242D01*
X773531Y-1613560D01*
X771753Y-1617522D01*
X768502Y-1620316D01*
X759307Y-1625346D01*
X748334Y-1633474D01*
X738530Y-1642922D01*
X730046Y-1653641D01*
X723087Y-1665376D01*
X717804Y-1677924D01*
X714197Y-1691081D01*
X712419Y-1704593D01*
X712419Y-1718259D01*
X714197Y-1731772D01*
X717804Y-1744929D01*
X723087Y-1757476D01*
X730046Y-1769211D01*
X738530Y-1779879D01*
X748334Y-1789379D01*
X759307Y-1797456D01*
X768502Y-1802536D01*
X771753Y-1805330D01*
X773531Y-1809292D01*
X773531Y-1813560D01*
X771753Y-1817522D01*
X768502Y-1820265D01*
X759307Y-1825396D01*
X748334Y-1833422D01*
X738530Y-1842973D01*
X730046Y-1853641D01*
X723087Y-1865375D01*
X717804Y-1877872D01*
X714197Y-1891080D01*
X712419Y-1904593D01*
X712419Y-1918258D01*
X714197Y-1931771D01*
X717804Y-1944928D01*
X723087Y-1957476D01*
X730046Y-1969211D01*
X738530Y-1979879D01*
X748334Y-1989378D01*
X759307Y-1997456D01*
X768502Y-2002536D01*
X771753Y-2005330D01*
X773531Y-2009292D01*
X773531Y-2013559D01*
X771753Y-2017522D01*
X768502Y-2020316D01*
X759307Y-2025396D01*
X748334Y-2033473D01*
X738530Y-2042972D01*
X730046Y-2053640D01*
X723087Y-2065375D01*
X717804Y-2077923D01*
X714197Y-2091080D01*
X712419Y-2104542D01*
X712419Y-2118207D01*
X714197Y-2131771D01*
X717804Y-2144928D01*
X723087Y-2157476D01*
X730046Y-2169210D01*
X738530Y-2179878D01*
X748334Y-2189378D01*
X759307Y-2197455D01*
X771245Y-2204008D01*
X783996Y-2208936D01*
X797255Y-2212086D01*
X810818Y-2213457D01*
X824433Y-2212949D01*
X837895Y-2210714D01*
X850900Y-2206701D01*
X863295Y-2200960D01*
X874776Y-2193594D01*
X885190Y-2184806D01*
X894334Y-2174697D01*
X902055Y-2163470D01*
X906018Y-2155596D01*
X908303Y-2152650D01*
X911453Y-2150719D01*
X915162Y-2149957D01*
X959002Y-2149957D01*
X962558Y-2150668D01*
X965708Y-2152548D01*
X970889Y-2157171D01*
X979119Y-2162149D01*
X988060Y-2165807D01*
X997508Y-2167839D01*
X1007160Y-2168245D01*
X1016762Y-2167026D01*
X1025906Y-2164130D01*
X1034542Y-2159863D01*
X1042314Y-2154123D01*
X1048969Y-2147163D01*
X1054354Y-2139137D01*
X1058367Y-2130348D01*
X1060754Y-2121052D01*
X1061669Y-2111451D01*
X1060754Y-2101799D01*
X1058367Y-2092502D01*
X1054354Y-2083714D01*
X1048969Y-2075688D01*
X1042314Y-2068728D01*
X1034542Y-2062988D01*
X1025906Y-2058619D01*
X1016762Y-2055825D01*
X1007160Y-2054606D01*
X997508Y-2055012D01*
X988060Y-2057044D01*
X979119Y-2060651D01*
X970889Y-2065680D01*
X965708Y-2070303D01*
X962558Y-2072182D01*
X959002Y-2072792D01*
X915060Y-2072792D01*
X911453Y-2072132D01*
X908303Y-2070201D01*
X906018Y-2067255D01*
X902055Y-2059381D01*
X894334Y-2048154D01*
X885190Y-2038045D01*
X874776Y-2029256D01*
X863295Y-2021890D01*
X860552Y-2020620D01*
X857503Y-2018385D01*
X855421Y-2015134D01*
X854659Y-2011425D01*
X855421Y-2007666D01*
X857503Y-2004415D01*
X860552Y-2002231D01*
X863295Y-2000961D01*
X874776Y-1993595D01*
X885190Y-1984806D01*
X894334Y-1974697D01*
X902055Y-1963470D01*
X908202Y-1951278D01*
X912672Y-1938375D01*
X915416Y-1925015D01*
X916330Y-1911451D01*
X915416Y-1897837D01*
X914146Y-1891538D01*
X913993Y-1888236D01*
X914958Y-1885035D01*
X916889Y-1882292D01*
X1341069Y-1458214D01*
X1344320Y-1455978D01*
X1348282Y-1455216D01*
X1352143Y-1455978D01*
X1355394Y-1458214D01*
X1357680Y-1461516D01*
X1358392Y-1465376D01*
X1358392Y-1790090D01*
X1359204Y-1798116D01*
X1361440Y-1805330D01*
X1364945Y-1812036D01*
X1370076Y-1818233D01*
X1425244Y-1873402D01*
X1427327Y-1876348D01*
X1428191Y-1879803D01*
X1427886Y-1883257D01*
X1423924Y-1897430D01*
X1422095Y-1910892D01*
X1422095Y-1924557D01*
X1423924Y-1938070D01*
X1427530Y-1951177D01*
X1432864Y-1963775D01*
X1439824Y-1975510D01*
X1448308Y-1986178D01*
X1458061Y-1995627D01*
X1469034Y-2003755D01*
X1481175Y-2010410D01*
X1484477Y-2013204D01*
X1485646Y-2015236D01*
X1489456Y-2014423D01*
X1493774Y-2015236D01*
X1507032Y-2018385D01*
X1520545Y-2019757D01*
X1534261Y-2019300D01*
X1547622Y-2017014D01*
X1555242Y-2014626D01*
X1559001Y-2014169D01*
X1562049Y-2015032D01*
X1563827Y-2012340D01*
X1566875Y-2010105D01*
X1573022Y-2007260D01*
X1584604Y-1999894D01*
X1595018Y-1991106D01*
X1604111Y-1980946D01*
X1611833Y-1969719D01*
X1618030Y-1957527D01*
X1622450Y-1944674D01*
X1625193Y-1931314D01*
X1626107Y-1917750D01*
X1625193Y-1904136D01*
X1622450Y-1890775D01*
X1618030Y-1877872D01*
X1611833Y-1865680D01*
X1604111Y-1854454D01*
X1595018Y-1844344D01*
X1584604Y-1835556D01*
X1573022Y-1828190D01*
X1566875Y-1825345D01*
X1563827Y-1823110D01*
X1562049Y-1820418D01*
X1559001Y-1821230D01*
X1555242Y-1820722D01*
X1547622Y-1818436D01*
X1534261Y-1816150D01*
X1520545Y-1815693D01*
X1507032Y-1817065D01*
X1493316Y-1820367D01*
X1489456Y-1821027D01*
X1485646Y-1820214D01*
X1482445Y-1818030D01*
X1480261Y-1814728D01*
X1479600Y-1810918D01*
X1479600Y-1759000D01*
X1445768Y-1759000D01*
X1441856Y-1758188D01*
X1438656Y-1756003D01*
X1436370Y-1752701D01*
X1435608Y-1748840D01*
X1435608Y-1680260D01*
X1436370Y-1676349D01*
X1438656Y-1673047D01*
X1441856Y-1670862D01*
X1445768Y-1670100D01*
X1479600Y-1670100D01*
X1479600Y-1622755D01*
X1469034Y-1628495D01*
X1458061Y-1636572D01*
X1452829Y-1641652D01*
X1449527Y-1643786D01*
X1445666Y-1644497D01*
X1441805Y-1643684D01*
X1438554Y-1641449D01*
X1436370Y-1638198D01*
X1435608Y-1634337D01*
X1435608Y-1591513D01*
X1436370Y-1587652D01*
X1438554Y-1584401D01*
X1441805Y-1582166D01*
X1445666Y-1581353D01*
X1449527Y-1582064D01*
X1452829Y-1584198D01*
X1458061Y-1589227D01*
X1469034Y-1597355D01*
X1481175Y-1604010D01*
X1484477Y-1606804D01*
X1485646Y-1608836D01*
X1489456Y-1608023D01*
X1493774Y-1608836D01*
X1507032Y-1611985D01*
X1520545Y-1613357D01*
X1534261Y-1612900D01*
X1547622Y-1610614D01*
X1555242Y-1608277D01*
X1559001Y-1607769D01*
X1562049Y-1608632D01*
X1563827Y-1605940D01*
X1566875Y-1603705D01*
X1573022Y-1600860D01*
X1584604Y-1593494D01*
X1595018Y-1584706D01*
X1604111Y-1574546D01*
X1611833Y-1563319D01*
X1615744Y-1555496D01*
X1618030Y-1552549D01*
X1621231Y-1550619D01*
X1624838Y-1549958D01*
X1732381Y-1549958D01*
X1736242Y-1550720D01*
X1739595Y-1552905D01*
X1787194Y-1600555D01*
X1789379Y-1603857D01*
X1790192Y-1607718D01*
X1790192Y-2296515D01*
X1789379Y-2300376D01*
X1787194Y-2303729D01*
X1783943Y-2305913D01*
X1780082Y-2306675D01*
X1760474Y-2306675D01*
X1754225Y-2307386D01*
X1748688Y-2309317D01*
X1743811Y-2312365D01*
X1739696Y-2316480D01*
X1736648Y-2321356D01*
X1734718Y-2326792D01*
X1734057Y-2333142D01*
X1734057Y-2445258D01*
X1734718Y-2451608D01*
X1736648Y-2457043D01*
X1739696Y-2461971D01*
X1743811Y-2465984D01*
X1748688Y-2469134D01*
X1754225Y-2471064D01*
X1760474Y-2471775D01*
X1867154Y-2471775D01*
X1871014Y-2472537D01*
X1874316Y-2474722D01*
X1876501Y-2478024D01*
X1877263Y-2481935D01*
X1876501Y-2485796D01*
X1874316Y-2489098D01*
X1859686Y-2503728D01*
X1856384Y-2505913D01*
X1852523Y-2506675D01*
X1760474Y-2506675D01*
X1754225Y-2507386D01*
X1748688Y-2509316D01*
X1743811Y-2512415D01*
X1739696Y-2516479D01*
X1736648Y-2521407D01*
X1734718Y-2526842D01*
X1734057Y-2533192D01*
X1734057Y-2645257D01*
X1734718Y-2651607D01*
X1736343Y-2656179D01*
X1736902Y-2659938D01*
X1735988Y-2663748D01*
X1733702Y-2666898D01*
X1730400Y-2668981D01*
X1726590Y-2669692D01*
X1722831Y-2668879D01*
X1719529Y-2666695D01*
X1685188Y-2632354D01*
X1683004Y-2629052D01*
X1682242Y-2625191D01*
X1682242Y-2533192D01*
X1681530Y-2526842D01*
X1679600Y-2521407D01*
X1676552Y-2516479D01*
X1672488Y-2512415D01*
X1667611Y-2509316D01*
X1662074Y-2507386D01*
X1655775Y-2506675D01*
X1519174Y-2506675D01*
X1512925Y-2507386D01*
X1507388Y-2509316D01*
X1502511Y-2512415D01*
X1498396Y-2516479D01*
X1495348Y-2521407D01*
X1493418Y-2526842D01*
X1492758Y-2533192D01*
X1492758Y-2645257D01*
X1493418Y-2651607D01*
X1495348Y-2657094D01*
X1498396Y-2661970D01*
X1502511Y-2666085D01*
X1507388Y-2669133D01*
X1512925Y-2671064D01*
X1519174Y-2671775D01*
X1611223Y-2671775D01*
X1615084Y-2672537D01*
X1618386Y-2674721D01*
X1926793Y-2983179D01*
X1929079Y-2986430D01*
X1929790Y-2990342D01*
X1929790Y-3046679D01*
X1930552Y-3052978D01*
X1932381Y-3058414D01*
X1935530Y-3063341D01*
X1939594Y-3067405D01*
X1944471Y-3070504D01*
X1949957Y-3072434D01*
X1956307Y-3073146D01*
X2105101Y-3073146D01*
X2111451Y-3072434D01*
X2116886Y-3070504D01*
X2121814Y-3067405D01*
X2125929Y-3063341D01*
X2128977Y-3058414D01*
X2130907Y-3052978D01*
X2131618Y-3046679D01*
X2131618Y-2947771D01*
X2130907Y-2941472D01*
X2128977Y-2936036D01*
X2125929Y-2931109D01*
X2121814Y-2927045D01*
X2116886Y-2923946D01*
X2111451Y-2922016D01*
X2105101Y-2921254D01*
X2079447Y-2921254D01*
X2075586Y-2920542D01*
X2072284Y-2918307D01*
X2070049Y-2915056D01*
X2069338Y-2911144D01*
X2069338Y-2623261D01*
X2070049Y-2619451D01*
X2072284Y-2616149D01*
X2110740Y-2577642D01*
X2113584Y-2575712D01*
X2116785Y-2574747D01*
X2120188Y-2574899D01*
X2123338Y-2576220D01*
X2125675Y-2577693D01*
X2131161Y-2579624D01*
X2137511Y-2580284D01*
X2231288Y-2580284D01*
X2237638Y-2579624D01*
X2244445Y-2577134D01*
X2247950Y-2576525D01*
X2251354Y-2577134D01*
X2258161Y-2579624D01*
X2264511Y-2580284D01*
X2358288Y-2580284D01*
X2364638Y-2579624D01*
X2371445Y-2577134D01*
X2374950Y-2576525D01*
X2378354Y-2577134D01*
X2385161Y-2579624D01*
X2391511Y-2580284D01*
X2485288Y-2580284D01*
X2491638Y-2579624D01*
X2498445Y-2577134D01*
X2501950Y-2576525D01*
X2505354Y-2577134D01*
X2512161Y-2579624D01*
X2518511Y-2580284D01*
X2612288Y-2580284D01*
X2618638Y-2579624D01*
X2625445Y-2577134D01*
X2628950Y-2576525D01*
X2632354Y-2577134D01*
X2639161Y-2579624D01*
X2645511Y-2580284D01*
X2739288Y-2580284D01*
X2745638Y-2579624D01*
X2752445Y-2577134D01*
X2756052Y-2576525D01*
X2759557Y-2577236D01*
X2762402Y-2578303D01*
X2765958Y-2580690D01*
X2768295Y-2584348D01*
X2768854Y-2588615D01*
X2764332Y-2601874D01*
X2762758Y-2611424D01*
X2762758Y-2621026D01*
X2764332Y-2630576D01*
X2767533Y-2639669D01*
X2772257Y-2648051D01*
X2778302Y-2655519D01*
X2785567Y-2661970D01*
X2793746Y-2667000D01*
X2802788Y-2670606D01*
X2812186Y-2672588D01*
X2821838Y-2673045D01*
X2831338Y-2671826D01*
X2840634Y-2668981D01*
X2849168Y-2664663D01*
X2856941Y-2658922D01*
X2863646Y-2651963D01*
X2869031Y-2643936D01*
X2872994Y-2635148D01*
X2875432Y-2625852D01*
X2876245Y-2616250D01*
X2875432Y-2606598D01*
X2872994Y-2597302D01*
X2870606Y-2592019D01*
X2869793Y-2587802D01*
X2870708Y-2583535D01*
X2873400Y-2580081D01*
X2877159Y-2578049D01*
X2880563Y-2577134D01*
X2883611Y-2576779D01*
X2886608Y-2577338D01*
X2893161Y-2579624D01*
X2899511Y-2580284D01*
X2993288Y-2580284D01*
X2999638Y-2579624D01*
X3006445Y-2577134D01*
X3009950Y-2576525D01*
X3013354Y-2577134D01*
X3020161Y-2579624D01*
X3026511Y-2580284D01*
X3120288Y-2580284D01*
X3126638Y-2579624D01*
X3133445Y-2577134D01*
X3136950Y-2576525D01*
X3140354Y-2577134D01*
X3147161Y-2579624D01*
X3153511Y-2580284D01*
X3247288Y-2580284D01*
X3253638Y-2579624D01*
X3260445Y-2577134D01*
X3263950Y-2576525D01*
X3267354Y-2577134D01*
X3274161Y-2579624D01*
X3279800Y-2580284D01*
X3283254Y-2581351D01*
X3286201Y-2583586D01*
X3288080Y-2586736D01*
X3288792Y-2590342D01*
X3288792Y-2686304D01*
X3287979Y-2690215D01*
X3285794Y-2693568D01*
X3225698Y-2753664D01*
X3220618Y-2759913D01*
X3217011Y-2766568D01*
X3214827Y-2773730D01*
X3214014Y-2781808D01*
X3214014Y-2896209D01*
X3213404Y-2899765D01*
X3211525Y-2902864D01*
X3208731Y-2905099D01*
X3197707Y-2911195D01*
X3186734Y-2919272D01*
X3176981Y-2928772D01*
X3168446Y-2939440D01*
X3161538Y-2951175D01*
X3160420Y-2953867D01*
X3158236Y-2957068D01*
X3155188Y-2959150D01*
X3156000Y-2961894D01*
X3155645Y-2965602D01*
X3152597Y-2976880D01*
X3150768Y-2990392D01*
X3150768Y-3004058D01*
X3152597Y-3017570D01*
X3155645Y-3028848D01*
X3156000Y-3032556D01*
X3155188Y-3035300D01*
X3158236Y-3037382D01*
X3160420Y-3040583D01*
X3161538Y-3043275D01*
X3168446Y-3055010D01*
X3176981Y-3065678D01*
X3186734Y-3075127D01*
X3197707Y-3083255D01*
X3209645Y-3089757D01*
X3222447Y-3094736D01*
X3235706Y-3097885D01*
X3249218Y-3099257D01*
X3262833Y-3098800D01*
X3276295Y-3096514D01*
X3289350Y-3092500D01*
X3301695Y-3086760D01*
X3313176Y-3079394D01*
X3323590Y-3070606D01*
X3332784Y-3060446D01*
X3340455Y-3049219D01*
X3345129Y-3039922D01*
X3347516Y-3036925D01*
X3350768Y-3034995D01*
X3354578Y-3034385D01*
X3358286Y-3035249D01*
X3361436Y-3037382D01*
X3363620Y-3040583D01*
X3364737Y-3043275D01*
X3371646Y-3055010D01*
X3380181Y-3065678D01*
X3389934Y-3075127D01*
X3400907Y-3083255D01*
X3412845Y-3089757D01*
X3425647Y-3094736D01*
X3438906Y-3097885D01*
X3452418Y-3099257D01*
X3466033Y-3098800D01*
X3479495Y-3096514D01*
X3492550Y-3092500D01*
X3504895Y-3086760D01*
X3516376Y-3079394D01*
X3526790Y-3070606D01*
X3535984Y-3060446D01*
X3543655Y-3049219D01*
X3549802Y-3037027D01*
X3554323Y-3024174D01*
X3557066Y-3010814D01*
X3557981Y-2997250D01*
X3557066Y-2983636D01*
X3554323Y-2970276D01*
X3549802Y-2957372D01*
X3543655Y-2945180D01*
X3535984Y-2933954D01*
X3526790Y-2923844D01*
X3516376Y-2915056D01*
X3504895Y-2907690D01*
X3500069Y-2905455D01*
X3496970Y-2903169D01*
X3494938Y-2900019D01*
X3494227Y-2896260D01*
X3493363Y-2590342D01*
X3494024Y-2586736D01*
X3495954Y-2583535D01*
X3498900Y-2581249D01*
X3502406Y-2580233D01*
X3507638Y-2579624D01*
X3514445Y-2577134D01*
X3517950Y-2576525D01*
X3521354Y-2577134D01*
X3528161Y-2579624D01*
X3534511Y-2580284D01*
X3628288Y-2580284D01*
X3634638Y-2579624D01*
X3641445Y-2577134D01*
X3645052Y-2576525D01*
X3648557Y-2577236D01*
X3651402Y-2578303D01*
X3654958Y-2580690D01*
X3657295Y-2584348D01*
X3657854Y-2588615D01*
X3653332Y-2601874D01*
X3651758Y-2611424D01*
X3651758Y-2621026D01*
X3653332Y-2630576D01*
X3656533Y-2639669D01*
X3661257Y-2648051D01*
X3667302Y-2655519D01*
X3674567Y-2661970D01*
X3682796Y-2667000D01*
X3691788Y-2670606D01*
X3701186Y-2672588D01*
X3710838Y-2673045D01*
X3720337Y-2671826D01*
X3729634Y-2668981D01*
X3738168Y-2664663D01*
X3745941Y-2658922D01*
X3752646Y-2651963D01*
X3758031Y-2643936D01*
X3761994Y-2635148D01*
X3764432Y-2625852D01*
X3765245Y-2616250D01*
X3764432Y-2606598D01*
X3761994Y-2597302D01*
X3759606Y-2592019D01*
X3758793Y-2587802D01*
X3759708Y-2583535D01*
X3762400Y-2580081D01*
X3766159Y-2578049D01*
X3769563Y-2577134D01*
X3772611Y-2576779D01*
X3775608Y-2577338D01*
X3782161Y-2579624D01*
X3788511Y-2580284D01*
X3805275Y-2580284D01*
X3805275Y-2508300D01*
X3792016Y-2508300D01*
X3788054Y-2507488D01*
X3784752Y-2505303D01*
X3782568Y-2502001D01*
X3781806Y-2498140D01*
X3781806Y-2400757D01*
X3782568Y-2396845D01*
X3784752Y-2393543D01*
X3788054Y-2391359D01*
X3792016Y-2390597D01*
X3805275Y-2390597D01*
X3805275Y-2318461D01*
X3788511Y-2318461D01*
X3782161Y-2319223D01*
X3775354Y-2321712D01*
X3771950Y-2322322D01*
X3768445Y-2321712D01*
X3761638Y-2319223D01*
X3755288Y-2318461D01*
X3661511Y-2318461D01*
X3655161Y-2319223D01*
X3648354Y-2321712D01*
X3644950Y-2322322D01*
X3641445Y-2321712D01*
X3634638Y-2319223D01*
X3628288Y-2318461D01*
X3534511Y-2318461D01*
X3528161Y-2319223D01*
X3521354Y-2321712D01*
X3517950Y-2322322D01*
X3514445Y-2321712D01*
X3507638Y-2319223D01*
X3501288Y-2318461D01*
X3407511Y-2318461D01*
X3401161Y-2319223D01*
X3394354Y-2321712D01*
X3390950Y-2322322D01*
X3387445Y-2321712D01*
X3380638Y-2319223D01*
X3374288Y-2318461D01*
X3280511Y-2318461D01*
X3274161Y-2319223D01*
X3267354Y-2321712D01*
X3263950Y-2322322D01*
X3260445Y-2321712D01*
X3253638Y-2319223D01*
X3247288Y-2318461D01*
X3153511Y-2318461D01*
X3147161Y-2319223D01*
X3140354Y-2321712D01*
X3136950Y-2322322D01*
X3133445Y-2321712D01*
X3126638Y-2319223D01*
X3120288Y-2318461D01*
X3026511Y-2318461D01*
X3020161Y-2319223D01*
X3013354Y-2321712D01*
X3009950Y-2322322D01*
X3006445Y-2321712D01*
X2999638Y-2319223D01*
X2993288Y-2318461D01*
X2899511Y-2318461D01*
X2893161Y-2319223D01*
X2886354Y-2321712D01*
X2882950Y-2322322D01*
X2879445Y-2321712D01*
X2872638Y-2319223D01*
X2866288Y-2318461D01*
X2772511Y-2318461D01*
X2766161Y-2319223D01*
X2759354Y-2321712D01*
X2755950Y-2322322D01*
X2752445Y-2321712D01*
X2745638Y-2319223D01*
X2739288Y-2318461D01*
X2645511Y-2318461D01*
X2639161Y-2319223D01*
X2632354Y-2321712D01*
X2628950Y-2322322D01*
X2625445Y-2321712D01*
X2618638Y-2319223D01*
X2612288Y-2318461D01*
X2518511Y-2318461D01*
X2512161Y-2319223D01*
X2505354Y-2321712D01*
X2501950Y-2322322D01*
X2498445Y-2321712D01*
X2491638Y-2319223D01*
X2486050Y-2318613D01*
X2482545Y-2317496D01*
X2479598Y-2315260D01*
X2477668Y-2312111D01*
X2477008Y-2308504D01*
X2477008Y-2286660D01*
X2476246Y-2278735D01*
X2474061Y-2271471D01*
X2470505Y-2264765D01*
X2465425Y-2258568D01*
X2415336Y-2208225D01*
X2409088Y-2203094D01*
X2402484Y-2199487D01*
X2395220Y-2197303D01*
X2387092Y-2196490D01*
X2170988Y-2196490D01*
X2166772Y-2195576D01*
X2163318Y-2193036D01*
X2161235Y-2189276D01*
X2160879Y-2184958D01*
X2162352Y-2180945D01*
X2163165Y-2179675D01*
X2165096Y-2174189D01*
X2165858Y-2167890D01*
X2165858Y-2074011D01*
X2165096Y-2067763D01*
X2162657Y-2060905D01*
X2161997Y-2057450D01*
X2162657Y-2053996D01*
X2165096Y-2047138D01*
X2165858Y-2040889D01*
X2165858Y-1947011D01*
X2165096Y-1940763D01*
X2162657Y-1933905D01*
X2161997Y-1930450D01*
X2162657Y-1926996D01*
X2165096Y-1920138D01*
X2165858Y-1913889D01*
X2165858Y-1820011D01*
X2165096Y-1813763D01*
X2162657Y-1806905D01*
X2161997Y-1803450D01*
X2162657Y-1799996D01*
X2165096Y-1793138D01*
X2165858Y-1786889D01*
X2165858Y-1693011D01*
X2165096Y-1686763D01*
X2162657Y-1679905D01*
X2161997Y-1676450D01*
X2162657Y-1672996D01*
X2165096Y-1666138D01*
X2165858Y-1659889D01*
X2165858Y-1566011D01*
X2165096Y-1559763D01*
X2162657Y-1552905D01*
X2161997Y-1549450D01*
X2162657Y-1545996D01*
X2165096Y-1539138D01*
X2165858Y-1532890D01*
X2165858Y-1439011D01*
X2165096Y-1432763D01*
X2162657Y-1425905D01*
X2161997Y-1422450D01*
X2162657Y-1418996D01*
X2165096Y-1412138D01*
X2165858Y-1405890D01*
X2165858Y-1312011D01*
X2165096Y-1305763D01*
X2162657Y-1298905D01*
X2161997Y-1295450D01*
X2162657Y-1291996D01*
X2165096Y-1285138D01*
X2165858Y-1278890D01*
X2165858Y-1185011D01*
X2165096Y-1178763D01*
X2162657Y-1171905D01*
X2161997Y-1168450D01*
X2162657Y-1164996D01*
X2165096Y-1158138D01*
X2165858Y-1151890D01*
X2165858Y-1058011D01*
X2165096Y-1051763D01*
X2162657Y-1044905D01*
X2161997Y-1041450D01*
X2162657Y-1037996D01*
X2165096Y-1031138D01*
X2165858Y-1024890D01*
X2165858Y-1008024D01*
X2093722Y-1008024D01*
X2093722Y-1021384D01*
X2092960Y-1025245D01*
X2090775Y-1028547D01*
X2087473Y-1030782D01*
X2083562Y-1031544D01*
X1986229Y-1031544D01*
X1982368Y-1030782D01*
X1979015Y-1028547D01*
X1976831Y-1025245D01*
X1976018Y-1021384D01*
X1976018Y-1008024D01*
X1904034Y-1008024D01*
X1904034Y-1024890D01*
X1904695Y-1031138D01*
X1907184Y-1037996D01*
X1907743Y-1041450D01*
X1907184Y-1044905D01*
X1904695Y-1051763D01*
X1904034Y-1057249D01*
X1902968Y-1060805D01*
X1900732Y-1063752D01*
X1897583Y-1065682D01*
X1894027Y-1066342D01*
X1681327Y-1066342D01*
X1677365Y-1065530D01*
X1674063Y-1063345D01*
X1671878Y-1060043D01*
X1671116Y-1056182D01*
X1671878Y-1052271D01*
X1674063Y-1048969D01*
X1805127Y-917905D01*
X1808429Y-915720D01*
X1812391Y-914958D01*
X1894484Y-914958D01*
X1898548Y-915822D01*
X1902002Y-918311D01*
X1904136Y-921969D01*
X1904492Y-926236D01*
X1904034Y-931011D01*
X1904034Y-947826D01*
X1976018Y-947826D01*
X1976018Y-925118D01*
X1976831Y-921207D01*
X1979015Y-917905D01*
X1982368Y-915720D01*
X1986229Y-914958D01*
X2083562Y-914958D01*
X2087473Y-915720D01*
X2090775Y-917905D01*
X2092960Y-921207D01*
X2093722Y-925118D01*
X2093722Y-947826D01*
X2165858Y-947826D01*
X2165858Y-931011D01*
X2165248Y-926236D01*
X2165654Y-921969D01*
X2167788Y-918311D01*
X2171192Y-915822D01*
X2175357Y-914958D01*
X2490114Y-914958D01*
X2498191Y-914146D01*
X2505456Y-911961D01*
X2512060Y-908405D01*
X2518257Y-903274D01*
X2592324Y-829157D01*
X2597454Y-823010D01*
X2601061Y-816356D01*
X2603195Y-809091D01*
X2604008Y-801065D01*
X2604008Y-790346D01*
X2604668Y-786688D01*
X2606598Y-783590D01*
X2609545Y-781304D01*
X2613050Y-780237D01*
X2618638Y-779627D01*
X2625394Y-777138D01*
X2628849Y-776528D01*
X2632354Y-777138D01*
X2639161Y-779627D01*
X2645511Y-780338D01*
X2739288Y-780338D01*
X2745638Y-779627D01*
X2752394Y-777138D01*
X2755849Y-776528D01*
X2759354Y-777138D01*
X2766161Y-779627D01*
X2772511Y-780338D01*
X2866288Y-780338D01*
X2872638Y-779627D01*
X2879394Y-777138D01*
X2882849Y-776528D01*
X2886354Y-777138D01*
X2893161Y-779627D01*
X2899511Y-780338D01*
X2993288Y-780338D01*
X2999638Y-779627D01*
X3006394Y-777138D01*
X3009849Y-776528D01*
X3013354Y-777138D01*
X3020161Y-779627D01*
X3026511Y-780338D01*
X3120288Y-780338D01*
X3126638Y-779627D01*
X3133394Y-777138D01*
X3136849Y-776528D01*
X3140354Y-777138D01*
X3147161Y-779627D01*
X3153511Y-780338D01*
X3247288Y-780338D01*
X3253638Y-779627D01*
X3260394Y-777138D01*
X3263849Y-776528D01*
X3267354Y-777138D01*
X3274161Y-779627D01*
X3280511Y-780338D01*
X3374288Y-780338D01*
X3380638Y-779627D01*
X3387394Y-777138D01*
X3390849Y-776528D01*
X3394354Y-777138D01*
X3401161Y-779627D01*
X3407511Y-780338D01*
X3501288Y-780338D01*
X3507638Y-779627D01*
X3514394Y-777138D01*
X3517849Y-776528D01*
X3521354Y-777138D01*
X3528161Y-779627D01*
X3534511Y-780338D01*
X3628288Y-780338D01*
X3634638Y-779627D01*
X3641394Y-777138D01*
X3644849Y-776528D01*
X3648354Y-777138D01*
X3655161Y-779627D01*
X3661511Y-780338D01*
X3755288Y-780338D01*
X3761638Y-779627D01*
X3768394Y-777138D01*
X3771849Y-776528D01*
X3775354Y-777138D01*
X3782161Y-779627D01*
X3788511Y-780338D01*
X3805275Y-780338D01*
X3805275Y-708253D01*
X3791915Y-708253D01*
X3788054Y-707491D01*
X3784752Y-705307D01*
X3782568Y-702005D01*
X3781806Y-698093D01*
X3781806Y-600710D01*
X3782568Y-596849D01*
X3784752Y-593547D01*
X3788054Y-591362D01*
X3791915Y-590550D01*
X3805275Y-590550D01*
X3805275Y-518515D01*
X3788511Y-518515D01*
X3782161Y-519226D01*
X3775354Y-521716D01*
X3771849Y-522325D01*
X3768394Y-521716D01*
X3761638Y-519226D01*
X3755288Y-518515D01*
X3661511Y-518515D01*
X3655161Y-519226D01*
X3648557Y-521512D01*
X3645611Y-522071D01*
X3642461Y-521716D01*
X3638956Y-520700D01*
X3635400Y-518871D01*
X3632809Y-515721D01*
X3631590Y-511809D01*
X3630523Y-506120D01*
X3629202Y-501853D01*
X3627577Y-497738D01*
X3625443Y-493826D01*
X3623056Y-490067D01*
X3620363Y-486562D01*
X3617264Y-483108D01*
X3466592Y-332486D01*
X3463188Y-329336D01*
X3459632Y-326644D01*
X3455924Y-324256D01*
X3451961Y-322122D01*
X3447846Y-320497D01*
X3443579Y-319176D01*
X3439261Y-318211D01*
X3434842Y-317601D01*
X3430219Y-317398D01*
X1030325Y-317398D01*
X1025702Y-317601D01*
X1021283Y-318211D01*
X1016965Y-319176D01*
X1012698Y-320497D01*
X1008634Y-322122D01*
X1004671Y-324256D01*
X1000912Y-326644D01*
X997407Y-329336D01*
X993952Y-332486D01*
X778408Y-548081D01*
X775258Y-551484D01*
X772566Y-555040D01*
X770178Y-558749D01*
X768096Y-562711D01*
X766419Y-566826D01*
X765048Y-571042D01*
X764133Y-575360D01*
X763524Y-579780D01*
X763320Y-584454D01*
X763320Y-614070D01*
X762812Y-617169D01*
X761390Y-620014D01*
X759206Y-622249D01*
X748334Y-630275D01*
X738530Y-639775D01*
X730046Y-650392D01*
X728929Y-652424D01*
X726643Y-655066D01*
X723595Y-656742D01*
X720242Y-657402D01*
X689051Y-657402D01*
X684428Y-657606D01*
X680008Y-658164D01*
X675690Y-659130D01*
X671423Y-660501D01*
X667359Y-662127D01*
X663397Y-664210D01*
X659688Y-666597D01*
X656132Y-669340D01*
X652729Y-672388D01*
X459485Y-865428D01*
X456285Y-868883D01*
X453643Y-872388D01*
X451205Y-876147D01*
X449173Y-880059D01*
X447446Y-884174D01*
X446125Y-888390D01*
X445160Y-892759D01*
X444601Y-897077D01*
X444398Y-901801D01*
X444398Y-2298395D01*
X444601Y-2303018D01*
X445160Y-2307437D01*
X446125Y-2311755D01*
X447446Y-2316022D01*
X449173Y-2320086D01*
X451205Y-2324049D01*
X453593Y-2327757D01*
X456285Y-2331313D01*
X459435Y-2334768D01*
X556666Y-2431999D01*
X560120Y-2435148D01*
X563626Y-2437841D01*
X567385Y-2440228D01*
X571347Y-2442260D01*
X575411Y-2443988D01*
X579678Y-2445308D01*
X583996Y-2446274D01*
X588416Y-2446832D01*
X593039Y-2447036D01*
X647496Y-2447036D01*
X651408Y-2447798D01*
X654710Y-2450033D01*
X656894Y-2453284D01*
X657707Y-2457196D01*
X657707Y-2519172D01*
X658368Y-2525471D01*
X660298Y-2530957D01*
X663346Y-2535834D01*
X667461Y-2539949D01*
X672388Y-2542997D01*
X677824Y-2544927D01*
X684123Y-2545588D01*
X802487Y-2545588D01*
X806399Y-2546400D01*
X809701Y-2548534D01*
X811885Y-2551887D01*
X812647Y-2555798D01*
X812647Y-2805938D01*
X811834Y-2810052D01*
X809396Y-2813405D01*
X805840Y-2815590D01*
X803351Y-2816453D01*
X798474Y-2819501D01*
X794359Y-2823565D01*
X791311Y-2828442D01*
X789381Y-2833979D01*
X788670Y-2840278D01*
X788670Y-3086150D01*
X789381Y-3092500D01*
X791311Y-3097936D01*
X794359Y-3102813D01*
X798474Y-3106877D01*
X803351Y-3110026D01*
X808837Y-3111906D01*
G37*
G36*
X3004972Y-3088995D02*
G01*
X3004972Y-3041700D01*
X2957677Y-3041700D01*
X2958338Y-3043275D01*
X2965246Y-3055010D01*
X2973781Y-3065678D01*
X2983534Y-3075127D01*
X2994507Y-3083255D01*
G37*
G36*
X3093872Y-3088894D02*
G01*
X3098495Y-3086760D01*
X3109976Y-3079394D01*
X3120390Y-3070606D01*
X3129584Y-3060446D01*
X3137255Y-3049219D01*
X3141065Y-3041700D01*
X3093872Y-3041700D01*
G37*
G36*
X2746298Y-3073146D02*
G01*
X2776829Y-3073146D01*
X2776829Y-3028594D01*
X2719781Y-3028594D01*
X2719781Y-3046679D01*
X2720441Y-3052978D01*
X2722372Y-3058414D01*
X2725470Y-3063341D01*
X2729534Y-3067405D01*
X2734513Y-3070504D01*
X2739948Y-3072434D01*
G37*
G36*
X2864561Y-3073146D02*
G01*
X2895092Y-3073146D01*
X2901391Y-3072434D01*
X2906877Y-3070504D01*
X2911754Y-3067405D01*
X2915869Y-3063341D01*
X2918968Y-3058414D01*
X2920847Y-3052978D01*
X2921609Y-3046679D01*
X2921609Y-3028594D01*
X2864561Y-3028594D01*
G37*
G36*
X1720900Y-3004769D02*
G01*
X1778507Y-3004769D01*
X1778507Y-2936697D01*
X1777746Y-2930398D01*
X1775866Y-2924911D01*
X1772818Y-2920034D01*
X1768754Y-2915869D01*
X1763775Y-2912821D01*
X1758340Y-2910941D01*
X1751990Y-2910230D01*
X1720900Y-2910230D01*
G37*
G36*
X1574241Y-3004769D02*
G01*
X1632000Y-3004769D01*
X1632000Y-2910230D01*
X1600809Y-2910230D01*
X1594459Y-2910941D01*
X1589024Y-2912821D01*
X1584045Y-2915869D01*
X1579981Y-2920034D01*
X1576882Y-2924911D01*
X1575054Y-2930398D01*
X1574241Y-2936697D01*
G37*
G36*
X2864561Y-2965856D02*
G01*
X2921609Y-2965856D01*
X2921609Y-2947771D01*
X2920847Y-2941472D01*
X2918968Y-2936036D01*
X2915869Y-2931109D01*
X2911754Y-2927045D01*
X2906877Y-2923946D01*
X2901391Y-2922016D01*
X2895092Y-2921254D01*
X2864561Y-2921254D01*
G37*
G36*
X2719781Y-2965856D02*
G01*
X2776829Y-2965856D01*
X2776829Y-2921254D01*
X2746298Y-2921254D01*
X2739948Y-2922016D01*
X2734513Y-2923946D01*
X2729534Y-2927045D01*
X2725470Y-2931109D01*
X2722372Y-2936036D01*
X2720441Y-2941472D01*
X2719781Y-2947771D01*
G37*
G36*
X3093872Y-2952800D02*
G01*
X3141065Y-2952800D01*
X3137255Y-2945180D01*
X3129584Y-2933954D01*
X3120390Y-2923844D01*
X3109976Y-2915056D01*
X3098495Y-2907690D01*
X3093872Y-2905556D01*
G37*
G36*
X2957677Y-2952800D02*
G01*
X3004972Y-2952800D01*
X3004972Y-2905455D01*
X2994507Y-2911195D01*
X2983534Y-2919272D01*
X2973781Y-2928772D01*
X2965246Y-2939440D01*
X2958338Y-2951175D01*
G37*
G36*
X558647Y-2895142D02*
G01*
X602742Y-2895142D01*
X602742Y-2813761D01*
X585165Y-2813761D01*
X578815Y-2814523D01*
X573379Y-2816453D01*
X568452Y-2819501D01*
X564438Y-2823565D01*
X561289Y-2828442D01*
X559358Y-2833979D01*
X558647Y-2840278D01*
G37*
G36*
X664413Y-2895142D02*
G01*
X708507Y-2895142D01*
X708507Y-2840278D01*
X707796Y-2833979D01*
X705866Y-2828442D01*
X702767Y-2823565D01*
X698754Y-2819501D01*
X693775Y-2816453D01*
X688340Y-2814523D01*
X681990Y-2813761D01*
X664413Y-2813761D01*
G37*
G36*
X1386281Y-2685643D02*
G01*
X1413154Y-2685643D01*
X1419402Y-2684932D01*
X1424940Y-2683002D01*
X1429816Y-2679954D01*
X1433880Y-2675839D01*
X1436979Y-2670962D01*
X1438859Y-2665476D01*
X1439570Y-2659176D01*
X1439570Y-2630830D01*
X1386281Y-2630830D01*
G37*
G36*
X1279245Y-2685643D02*
G01*
X1306068Y-2685643D01*
X1306068Y-2630830D01*
X1252778Y-2630830D01*
X1252778Y-2659176D01*
X1253490Y-2665476D01*
X1255420Y-2670962D01*
X1258468Y-2675839D01*
X1262583Y-2679954D01*
X1267460Y-2683002D01*
X1272997Y-2684932D01*
G37*
G36*
X3865473Y-2580284D02*
G01*
X3882288Y-2580284D01*
X3888638Y-2579624D01*
X3894074Y-2577693D01*
X3899052Y-2574645D01*
X3903065Y-2570530D01*
X3906164Y-2565654D01*
X3908094Y-2560167D01*
X3908806Y-2553868D01*
X3908806Y-2508300D01*
X3865473Y-2508300D01*
G37*
G36*
X3950665Y-2451150D02*
G01*
X4583734Y-2451150D01*
X4584750Y-2450134D01*
X4584750Y-648716D01*
X4583734Y-647750D01*
X3950665Y-647750D01*
X3949750Y-648716D01*
X3949852Y-2450947D01*
G37*
G36*
X3865473Y-2390597D02*
G01*
X3908806Y-2390597D01*
X3908806Y-2345029D01*
X3908094Y-2338679D01*
X3906164Y-2333244D01*
X3903065Y-2328265D01*
X3899052Y-2324252D01*
X3894074Y-2321153D01*
X3888638Y-2319223D01*
X3882288Y-2318461D01*
X3865473Y-2318461D01*
G37*
G36*
X1479600Y-2212695D02*
G01*
X1479600Y-2165400D01*
X1432204Y-2165400D01*
X1432864Y-2166975D01*
X1439824Y-2178710D01*
X1448308Y-2189378D01*
X1458061Y-2198827D01*
X1469034Y-2206955D01*
G37*
G36*
X1568500Y-2212594D02*
G01*
X1573022Y-2210460D01*
X1584604Y-2203094D01*
X1595018Y-2194306D01*
X1604111Y-2184146D01*
X1611833Y-2172919D01*
X1615643Y-2165400D01*
X1568500Y-2165400D01*
G37*
G36*
X1568500Y-2076500D02*
G01*
X1615643Y-2076500D01*
X1611833Y-2068880D01*
X1604111Y-2057654D01*
X1595018Y-2047544D01*
X1584604Y-2038756D01*
X1573022Y-2031390D01*
X1568500Y-2029256D01*
G37*
G36*
X1432204Y-2076500D02*
G01*
X1479600Y-2076500D01*
X1479600Y-2029155D01*
X1469034Y-2034895D01*
X1458061Y-2042972D01*
X1448308Y-2052472D01*
X1439824Y-2063140D01*
X1432864Y-2074875D01*
G37*
G36*
X1568500Y-1806193D02*
G01*
X1573022Y-1804060D01*
X1584604Y-1796694D01*
X1595018Y-1787906D01*
X1604111Y-1777746D01*
X1611833Y-1766519D01*
X1615643Y-1759000D01*
X1568500Y-1759000D01*
G37*
G36*
X1568500Y-1670100D02*
G01*
X1615643Y-1670100D01*
X1611833Y-1662480D01*
X1604111Y-1651254D01*
X1595018Y-1641144D01*
X1584604Y-1632356D01*
X1573022Y-1624990D01*
X1568500Y-1622856D01*
G37*
G36*
X3236163Y-1610360D02*
G01*
X3251708Y-1610360D01*
X3258058Y-1609648D01*
X3263493Y-1607718D01*
X3268370Y-1604619D01*
X3272485Y-1600555D01*
X3275533Y-1595577D01*
X3277463Y-1590192D01*
X3278225Y-1583842D01*
X3278225Y-1568297D01*
X3236163Y-1568297D01*
G37*
G36*
X2882849Y-1610360D02*
G01*
X2898444Y-1610360D01*
X2898444Y-1568297D01*
X2856382Y-1568297D01*
X2856382Y-1583842D01*
X2857093Y-1590192D01*
X2859024Y-1595577D01*
X2862072Y-1600555D01*
X2866136Y-1604619D01*
X2871063Y-1607718D01*
X2876499Y-1609648D01*
G37*
G36*
X3096107Y-1610360D02*
G01*
X3111754Y-1610360D01*
X3118104Y-1609648D01*
X3123488Y-1607718D01*
X3128416Y-1604619D01*
X3130143Y-1602892D01*
X3133394Y-1600758D01*
X3137255Y-1599946D01*
X3141167Y-1600758D01*
X3144469Y-1602892D01*
X3146145Y-1604619D01*
X3151124Y-1607718D01*
X3156559Y-1609648D01*
X3162909Y-1610360D01*
X3178454Y-1610360D01*
X3178454Y-1568297D01*
X3096107Y-1568297D01*
G37*
G36*
X2956102Y-1610360D02*
G01*
X2971698Y-1610360D01*
X2977997Y-1609648D01*
X2983534Y-1607718D01*
X2988411Y-1604619D01*
X2990088Y-1602892D01*
X2993390Y-1600708D01*
X2997250Y-1599946D01*
X3001213Y-1600708D01*
X3004464Y-1602892D01*
X3006191Y-1604619D01*
X3011068Y-1607718D01*
X3016554Y-1609648D01*
X3022854Y-1610360D01*
X3038500Y-1610360D01*
X3038500Y-1568297D01*
X2956102Y-1568297D01*
G37*
G36*
X2856382Y-1510538D02*
G01*
X2898444Y-1510538D01*
X2898444Y-1428292D01*
X2856382Y-1428292D01*
X2856382Y-1443837D01*
X2857093Y-1450187D01*
X2859024Y-1455623D01*
X2862072Y-1460550D01*
X2863748Y-1462227D01*
X2866034Y-1465529D01*
X2866745Y-1469440D01*
X2866034Y-1473301D01*
X2863748Y-1476603D01*
X2862072Y-1478330D01*
X2859024Y-1483207D01*
X2857093Y-1488694D01*
X2856382Y-1494942D01*
G37*
G36*
X3236163Y-1510538D02*
G01*
X3278225Y-1510538D01*
X3278225Y-1494942D01*
X3277463Y-1488694D01*
X3275533Y-1483207D01*
X3272485Y-1478330D01*
X3270758Y-1476603D01*
X3268573Y-1473301D01*
X3267811Y-1469440D01*
X3268573Y-1465529D01*
X3270758Y-1462227D01*
X3272485Y-1460550D01*
X3275533Y-1455623D01*
X3277463Y-1450187D01*
X3278225Y-1443837D01*
X3278225Y-1428292D01*
X3236163Y-1428292D01*
G37*
G36*
X3096107Y-1510538D02*
G01*
X3178454Y-1510538D01*
X3178454Y-1428292D01*
X3096107Y-1428242D01*
G37*
G36*
X2956102Y-1510538D02*
G01*
X3038500Y-1510538D01*
X3038398Y-1428242D01*
X2956102Y-1428292D01*
G37*
G36*
X3236163Y-1370584D02*
G01*
X3278225Y-1370584D01*
X3278225Y-1354988D01*
X3277463Y-1348689D01*
X3275533Y-1343202D01*
X3272485Y-1338326D01*
X3270758Y-1336598D01*
X3268573Y-1333246D01*
X3267811Y-1329436D01*
X3268573Y-1325524D01*
X3270758Y-1322222D01*
X3272485Y-1320546D01*
X3275533Y-1315669D01*
X3277463Y-1310182D01*
X3278225Y-1303883D01*
X3278225Y-1288288D01*
X3236163Y-1288288D01*
G37*
G36*
X2856382Y-1370584D02*
G01*
X2898444Y-1370584D01*
X2898444Y-1288288D01*
X2856382Y-1288288D01*
X2856382Y-1303883D01*
X2857093Y-1310182D01*
X2859024Y-1315669D01*
X2862072Y-1320546D01*
X2863748Y-1322222D01*
X2866034Y-1325524D01*
X2866745Y-1329436D01*
X2866034Y-1333246D01*
X2863748Y-1336598D01*
X2862072Y-1338326D01*
X2859024Y-1343202D01*
X2857093Y-1348689D01*
X2856382Y-1354988D01*
G37*
G36*
X3096107Y-1370584D02*
G01*
X3178454Y-1370584D01*
X3178454Y-1288288D01*
X3096107Y-1288288D01*
G37*
G36*
X2956102Y-1370584D02*
G01*
X3038398Y-1370584D01*
X3038500Y-1288288D01*
X2956102Y-1288288D01*
G37*
G36*
X3236163Y-1230579D02*
G01*
X3278225Y-1230579D01*
X3278225Y-1214983D01*
X3277463Y-1208684D01*
X3275533Y-1203198D01*
X3272485Y-1198321D01*
X3268370Y-1194206D01*
X3263493Y-1191107D01*
X3258058Y-1189177D01*
X3251708Y-1188516D01*
X3236163Y-1188516D01*
G37*
G36*
X2856382Y-1230579D02*
G01*
X2898444Y-1230579D01*
X2898444Y-1188516D01*
X2882849Y-1188516D01*
X2876499Y-1189177D01*
X2871063Y-1191107D01*
X2866136Y-1194206D01*
X2862072Y-1198321D01*
X2859024Y-1203198D01*
X2857093Y-1208684D01*
X2856382Y-1214983D01*
G37*
G36*
X3096107Y-1230579D02*
G01*
X3178454Y-1230579D01*
X3178454Y-1188516D01*
X3162909Y-1188516D01*
X3156559Y-1189177D01*
X3151124Y-1191107D01*
X3146145Y-1194206D01*
X3144469Y-1195933D01*
X3141167Y-1198118D01*
X3137255Y-1198880D01*
X3133394Y-1198118D01*
X3130143Y-1195933D01*
X3128416Y-1194206D01*
X3123488Y-1191107D01*
X3118104Y-1189177D01*
X3111754Y-1188516D01*
X3096107Y-1188516D01*
G37*
G36*
X2956102Y-1230579D02*
G01*
X3038500Y-1230579D01*
X3038500Y-1188516D01*
X3022854Y-1188516D01*
X3016554Y-1189177D01*
X3011068Y-1191107D01*
X3006191Y-1194206D01*
X3004464Y-1195933D01*
X3001213Y-1198118D01*
X2997352Y-1198930D01*
X2993390Y-1198118D01*
X2990088Y-1195933D01*
X2988411Y-1194206D01*
X2983534Y-1191107D01*
X2977997Y-1189177D01*
X2971698Y-1188516D01*
X2956102Y-1188516D01*
G37*
G36*
X769772Y-1003553D02*
G01*
X769772Y-955903D01*
X722426Y-955903D01*
X730046Y-969213D01*
X738530Y-979881D01*
X748334Y-989380D01*
X759307Y-997458D01*
X768502Y-1002537D01*
G37*
G36*
X858672Y-1003553D02*
G01*
X860552Y-1002233D01*
X863295Y-1000963D01*
X874776Y-993597D01*
X885190Y-984808D01*
X894334Y-974699D01*
X902055Y-963472D01*
X905916Y-955903D01*
X858672Y-955903D01*
G37*
G36*
X858672Y-867003D02*
G01*
X905916Y-867003D01*
X902055Y-859383D01*
X894334Y-848156D01*
X885190Y-838047D01*
X874776Y-829259D01*
X863295Y-821842D01*
X858672Y-819759D01*
G37*
G36*
X722426Y-867003D02*
G01*
X769772Y-867003D01*
X769772Y-819658D01*
X759307Y-825398D01*
X748334Y-833475D01*
X738530Y-842975D01*
X730046Y-853592D01*
X723188Y-865327D01*
G37*
G36*
X3865473Y-780338D02*
G01*
X3882288Y-780338D01*
X3888638Y-779627D01*
X3894074Y-777697D01*
X3899052Y-774598D01*
X3903065Y-770534D01*
X3906164Y-765606D01*
X3908044Y-760171D01*
X3908806Y-753821D01*
X3908806Y-708253D01*
X3865473Y-708253D01*
G37*
G36*
X3865473Y-590550D02*
G01*
X3908806Y-590550D01*
X3908806Y-544982D01*
X3908044Y-538683D01*
X3906164Y-533146D01*
X3903065Y-528269D01*
X3899052Y-524205D01*
X3894074Y-521157D01*
X3888638Y-519226D01*
X3882288Y-518515D01*
X3865473Y-518515D01*
G37*
G36*
X249986Y-377545D02*
G01*
X265379Y-376580D01*
X280517Y-373837D01*
X295198Y-369265D01*
X309219Y-362915D01*
X322427Y-354888D01*
X334518Y-345440D01*
X345389Y-334568D01*
X354888Y-322478D01*
X362864Y-309270D01*
X369214Y-295249D01*
X373786Y-280568D01*
X376529Y-265430D01*
X377494Y-250037D01*
X376529Y-234645D01*
X373786Y-219506D01*
X369214Y-204825D01*
X362864Y-190754D01*
X354888Y-177546D01*
X345389Y-165506D01*
X334518Y-154584D01*
X322427Y-145135D01*
X309219Y-137160D01*
X295198Y-130810D01*
X280517Y-126237D01*
X265379Y-123494D01*
X249986Y-122529D01*
X234594Y-123494D01*
X219456Y-126237D01*
X204774Y-130810D01*
X190754Y-137160D01*
X177546Y-145135D01*
X165455Y-154584D01*
X154584Y-165506D01*
X145084Y-177546D01*
X137109Y-190754D01*
X130759Y-204825D01*
X126187Y-219506D01*
X123444Y-234645D01*
X122478Y-250037D01*
X123444Y-265430D01*
X126187Y-280568D01*
X130759Y-295249D01*
X137109Y-309270D01*
X145084Y-322478D01*
X154584Y-334568D01*
X165455Y-345440D01*
X177546Y-354888D01*
X190754Y-362915D01*
X204774Y-369265D01*
X219456Y-373837D01*
X234594Y-376580D01*
G37*
G36*
X4550054Y-377545D02*
G01*
X4565345Y-376580D01*
X4580534Y-373837D01*
X4595164Y-369265D01*
X4609236Y-362915D01*
X4622393Y-354888D01*
X4634534Y-345440D01*
X4645406Y-334568D01*
X4654905Y-322478D01*
X4662881Y-309270D01*
X4669231Y-295249D01*
X4673752Y-280568D01*
X4676597Y-265430D01*
X4677511Y-250037D01*
X4676597Y-234645D01*
X4673752Y-219506D01*
X4669231Y-204825D01*
X4662881Y-190754D01*
X4654905Y-177546D01*
X4645406Y-165506D01*
X4634534Y-154584D01*
X4622393Y-145135D01*
X4609236Y-137160D01*
X4595164Y-130810D01*
X4580534Y-126237D01*
X4565345Y-123494D01*
X4550054Y-122529D01*
X4534611Y-123494D01*
X4519523Y-126237D01*
X4504791Y-130810D01*
X4490720Y-137160D01*
X4477562Y-145135D01*
X4465421Y-154584D01*
X4454550Y-165506D01*
X4445050Y-177546D01*
X4437075Y-190754D01*
X4430776Y-204825D01*
X4426204Y-219506D01*
X4423410Y-234645D01*
X4422495Y-250037D01*
X4423410Y-265430D01*
X4426204Y-280568D01*
X4430776Y-295249D01*
X4437075Y-309270D01*
X4445050Y-322478D01*
X4454550Y-334568D01*
X4465421Y-345440D01*
X4477562Y-354888D01*
X4490720Y-362915D01*
X4504791Y-369265D01*
X4519523Y-373837D01*
X4534611Y-376580D01*
G37*

%LPD*%
D10*
X863600Y-2396210D02*
G01*
X863600Y-2963189D01*
D11*
X814349Y-1511427D02*
G01*
X1079271Y-1511427D01*
X2146325Y-444373D01*
X2362225Y-444373D01*
X2438425Y-520827D01*
X2438425Y-649351D01*
D10*
X814260Y-708202D02*
G01*
X814260Y-584187D01*
X1030147Y-368300D01*
X3430452Y-368300D01*
X3581402Y-519247D01*
X3581402Y-649386D01*
X814349Y-708279D02*
G01*
X688873Y-708279D01*
X495325Y-901573D01*
X495325Y-2298573D01*
X592861Y-2396109D01*
X863625Y-2396109D01*
D11*
X1828802Y-2389197D02*
G01*
X1828802Y-1587505D01*
X1752602Y-1511300D01*
D10*
X1447825Y-3085973D02*
G01*
X1308125Y-3085973D01*
X1185189Y-2963290D01*
X1093495Y-2963290D01*
D11*
X1346200Y-2389200D02*
G01*
X1587500Y-2389200D01*
D10*
X863625Y-2396109D02*
G01*
X1346225Y-2396109D01*
X1346225Y-2389251D01*
D11*
X1879625Y-2197227D02*
G01*
X1917725Y-2235073D01*
X2387625Y-2235073D01*
X2438425Y-2286127D01*
X2438425Y-2449449D01*
X1587500Y-2589199D02*
G01*
X1995500Y-2997200D01*
X2030704Y-2997200D01*
X2184400Y-2449398D02*
G01*
X2030704Y-2603093D01*
X2030704Y-2997200D01*
X1828825Y-2589149D02*
G01*
X2132101Y-2285873D01*
X2260625Y-2285873D01*
X2311425Y-2336927D01*
X2311425Y-2449449D01*
X1752602Y-1511300D02*
G01*
X1524000Y-1511300D01*
X1524025Y-1917573D02*
G01*
X1397025Y-1790573D01*
X1397025Y-1460373D01*
X1473225Y-1384173D01*
X1727225Y-1384173D01*
X1879625Y-1536827D01*
X1879625Y-2197227D01*
X3708402Y-2449410D02*
G01*
X3708402Y-2616200D01*
X2819402Y-2449410D02*
G01*
X2819402Y-2616200D01*
X814260Y-1311396D02*
G01*
X674547Y-1311396D01*
X814247Y-1111404D02*
G01*
X674547Y-1111404D01*
X2819402Y-649386D02*
G01*
X2819402Y-457200D01*
X814247Y-2111397D02*
G01*
X1004747Y-2111397D01*
X814247Y-1911398D02*
G01*
X833246Y-1911398D01*
X1639740Y-1104910D01*
X2034903Y-1104910D01*
X814247Y-1711398D02*
G01*
X957046Y-1711398D01*
X1792152Y-876300D01*
X2490652Y-876300D01*
X2565402Y-801550D01*
X2565402Y-649386D01*
D10*
X3581402Y-649386D02*
G01*
X3708402Y-649386D01*
D11*
X3252652Y-2997200D02*
G01*
X3252652Y-2781300D01*
X3327402Y-2706542D01*
X3327402Y-2449410D01*
X3455852Y-2997200D02*
G01*
X3454402Y-2449410D01*
D12*
G01*
X814247Y-2111400D03*
G01*
X814247Y-1911400D03*
G01*
X814247Y-1711401D03*
G01*
X814247Y-1511401D03*
G01*
X814247Y-1311402D03*
G01*
X814247Y-1111402D03*
G01*
X814247Y-911402D03*
G01*
X814247Y-708202D03*
G01*
X3252647Y-2997200D03*
G01*
X3455847Y-2997200D03*
D13*
G01*
X1447800Y-3086100D03*
G01*
X1676400Y-3086100D03*
D12*
G01*
X3049447Y-2997200D03*
G01*
X1524000Y-1511300D03*
G01*
X1524000Y-1714500D03*
G01*
X1524000Y-1917700D03*
G01*
X1524000Y-2120900D03*
D14*
G01*
X1828799Y-2589204D03*
D15*
G01*
X1828800Y-2389200D03*
D16*
G01*
X1346200Y-2589202D03*
D17*
G01*
X1346200Y-2389200D03*
D18*
G01*
X2030704Y-2997200D03*
G01*
X2820695Y-2997200D03*
D14*
G01*
X1587499Y-2389195D03*
D15*
G01*
X1587500Y-2589199D03*
D19*
G01*
X633602Y-2963189D03*
G01*
X863600Y-2963189D03*
G01*
X1093596Y-2963189D03*
D20*
G01*
X863599Y-2396200D03*
D21*
G01*
X3835400Y-649401D03*
G01*
X3708400Y-649401D03*
G01*
X3581400Y-649401D03*
G01*
X3454400Y-649401D03*
G01*
X3327400Y-649401D03*
G01*
X3200400Y-649401D03*
G01*
X3073400Y-649401D03*
G01*
X2946400Y-649401D03*
G01*
X2819400Y-649401D03*
G01*
X2692400Y-649401D03*
G01*
X2565400Y-649401D03*
G01*
X2438400Y-649401D03*
G01*
X2311400Y-649401D03*
G01*
X2184400Y-649401D03*
D22*
G01*
X2034895Y-977925D03*
G01*
X2034895Y-1104925D03*
G01*
X2034895Y-1231925D03*
G01*
X2034895Y-1358925D03*
G01*
X2034895Y-1485925D03*
G01*
X2034895Y-1612925D03*
G01*
X2034895Y-1739925D03*
G01*
X2034895Y-1866925D03*
G01*
X2034895Y-1993925D03*
G01*
X2034895Y-2120925D03*
D21*
G01*
X2184400Y-2449398D03*
G01*
X2311400Y-2449398D03*
G01*
X2438400Y-2449398D03*
G01*
X2565400Y-2449398D03*
G01*
X2692400Y-2449398D03*
G01*
X2819400Y-2449398D03*
G01*
X2946400Y-2449398D03*
G01*
X3073400Y-2449398D03*
G01*
X3200400Y-2449398D03*
G01*
X3327400Y-2449398D03*
G01*
X3454400Y-2449398D03*
G01*
X3581400Y-2449398D03*
G01*
X3708400Y-2449398D03*
G01*
X3835400Y-2449398D03*
D23*
G01*
X3067304Y-1399387D03*
G01*
X3067304Y-1259408D03*
G01*
X3067304Y-1539392D03*
G01*
X3207308Y-1539392D03*
G01*
X3207308Y-1399413D03*
G01*
X3207308Y-1259408D03*
G01*
X2927299Y-1259408D03*
G01*
X2927299Y-1399413D03*
G01*
X2927299Y-1539392D03*
D24*
G01*
X1004747Y-2111400D03*
G01*
X2819400Y-457200D03*
G01*
X674547Y-1111402D03*
G01*
X674547Y-1311402D03*
G01*
X2819400Y-2616200D03*
G01*
X3708400Y-2616200D03*
G01*
X228600Y-635000D03*
G01*
X228600Y-1219200D03*
G01*
X228600Y-1803400D03*
G01*
X228600Y-2387600D03*
G01*
X1016000Y-165100D03*
G01*
X1879600Y-165100D03*
G01*
X2743200Y-165100D03*
G01*
X3606800Y-165100D03*
M02*
